G04*
G04 #@! TF.GenerationSoftware,Altium Limited,Altium Designer,20.0.13 (296)*
G04*
G04 Layer_Color=8388736*
%FSLAX44Y44*%
%MOMM*%
G71*
G01*
G75*
%ADD21R,4.4032X5.7032*%
%ADD22R,3.0032X2.8032*%
%ADD23R,1.4032X1.7032*%
%ADD24R,1.2032X1.2032*%
%ADD25O,1.6532X0.8032*%
%ADD26R,1.2032X1.1032*%
%ADD27R,1.3032X1.7032*%
%ADD28R,3.2032X3.2032*%
%ADD29C,5.2032*%
D21*
X220000Y130000D02*
D03*
X340000D02*
D03*
X227000Y346000D02*
D03*
X347000D02*
D03*
D22*
X114000Y91000D02*
D03*
X174000D02*
D03*
X122000Y385000D02*
D03*
X182000D02*
D03*
D23*
X206500Y210000D02*
D03*
X189500D02*
D03*
X171500Y129000D02*
D03*
X154500D02*
D03*
X156500Y347000D02*
D03*
X173500D02*
D03*
X247500Y266000D02*
D03*
X230500D02*
D03*
D24*
X60000Y378000D02*
D03*
Y362000D02*
D03*
Y92000D02*
D03*
Y108000D02*
D03*
D25*
X119750Y187050D02*
D03*
Y174350D02*
D03*
Y161650D02*
D03*
Y148950D02*
D03*
X174250Y187050D02*
D03*
Y174350D02*
D03*
Y161650D02*
D03*
Y148950D02*
D03*
X179250Y287950D02*
D03*
Y300650D02*
D03*
Y313350D02*
D03*
Y326050D02*
D03*
X124750Y287950D02*
D03*
Y300650D02*
D03*
Y313350D02*
D03*
Y326050D02*
D03*
D26*
X40000Y93500D02*
D03*
Y110000D02*
D03*
X41000Y377250D02*
D03*
Y360750D02*
D03*
D27*
X210500Y266000D02*
D03*
X191500D02*
D03*
X226500Y210000D02*
D03*
X245500D02*
D03*
D28*
X420000Y271000D02*
D03*
Y220000D02*
D03*
X60000Y330000D02*
D03*
Y280000D02*
D03*
Y140000D02*
D03*
Y190000D02*
D03*
D29*
X460000Y430000D02*
D03*
X40000D02*
D03*
X460000Y40000D02*
D03*
X40000D02*
D03*
M02*
