G04*
G04 #@! TF.GenerationSoftware,Altium Limited,Altium Designer,20.0.13 (296)*
G04*
G04 Layer_Color=8421504*
%FSLAX44Y44*%
%MOMM*%
G71*
G01*
G75*
%ADD14R,4.2000X5.5000*%
%ADD15R,2.8000X2.6000*%
%ADD16R,1.2000X1.5000*%
%ADD17R,1.0000X1.0000*%
%ADD18O,1.4500X0.6000*%
%ADD19R,1.0000X0.9000*%
%ADD20R,1.1000X1.5000*%
D14*
X220000Y130000D02*
D03*
X340000D02*
D03*
X227000Y346000D02*
D03*
X347000D02*
D03*
D15*
X114000Y91000D02*
D03*
X174000D02*
D03*
X122000Y385000D02*
D03*
X182000D02*
D03*
D16*
X206500Y210000D02*
D03*
X189500D02*
D03*
X171500Y129000D02*
D03*
X154500D02*
D03*
X156500Y347000D02*
D03*
X173500D02*
D03*
X247500Y266000D02*
D03*
X230500D02*
D03*
D17*
X60000Y378000D02*
D03*
Y362000D02*
D03*
Y92000D02*
D03*
Y108000D02*
D03*
D18*
X119750Y187050D02*
D03*
Y174350D02*
D03*
Y161650D02*
D03*
Y148950D02*
D03*
X174250Y187050D02*
D03*
Y174350D02*
D03*
Y161650D02*
D03*
Y148950D02*
D03*
X179250Y287950D02*
D03*
Y300650D02*
D03*
Y313350D02*
D03*
Y326050D02*
D03*
X124750Y287950D02*
D03*
Y300650D02*
D03*
Y313350D02*
D03*
Y326050D02*
D03*
D19*
X40000Y93500D02*
D03*
Y110000D02*
D03*
X41000Y377250D02*
D03*
Y360750D02*
D03*
D20*
X210500Y266000D02*
D03*
X191500D02*
D03*
X226500Y210000D02*
D03*
X245500D02*
D03*
M02*
