G04*
G04 #@! TF.GenerationSoftware,Altium Limited,Altium Designer,20.0.13 (296)*
G04*
G04 Layer_Color=16711935*
%FSLAX44Y44*%
%MOMM*%
G71*
G01*
G75*
%ADD12C,0.2000*%
%ADD31C,0.2540*%
G36*
X265964Y116428D02*
X266042Y116418D01*
X266130Y116408D01*
X266227Y116398D01*
X266335Y116369D01*
X266569Y116311D01*
X266813Y116223D01*
X266939Y116164D01*
X267057Y116096D01*
X267164Y116008D01*
X267271Y115920D01*
X267281Y115911D01*
X267290Y115901D01*
X267320Y115872D01*
X267359Y115833D01*
X267398Y115774D01*
X267447Y115716D01*
X267544Y115569D01*
X267642Y115384D01*
X267729Y115169D01*
X267798Y114926D01*
X267808Y114789D01*
X267817Y114653D01*
Y114633D01*
Y114584D01*
X267808Y114506D01*
X267798Y114409D01*
X267778Y114292D01*
X267749Y114165D01*
X267710Y114028D01*
X267651Y113892D01*
X267642Y113872D01*
X267622Y113823D01*
X267583Y113755D01*
X267525Y113658D01*
X267456Y113540D01*
X267369Y113404D01*
X267251Y113267D01*
X267125Y113111D01*
X267105Y113092D01*
X267057Y113033D01*
X266969Y112946D01*
X266910Y112887D01*
X266842Y112819D01*
X266764Y112741D01*
X266666Y112653D01*
X266569Y112565D01*
X266462Y112458D01*
X266345Y112351D01*
X266208Y112234D01*
X266071Y112116D01*
X265915Y111980D01*
X265905Y111970D01*
X265886Y111951D01*
X265847Y111921D01*
X265798Y111882D01*
X265681Y111785D01*
X265535Y111658D01*
X265389Y111522D01*
X265233Y111385D01*
X265106Y111268D01*
X265057Y111219D01*
X265008Y111170D01*
X264998Y111161D01*
X264979Y111131D01*
X264940Y111092D01*
X264891Y111034D01*
X264784Y110907D01*
X264677Y110751D01*
X267827D01*
Y110000D01*
X263584D01*
Y110010D01*
Y110049D01*
Y110107D01*
X263594Y110176D01*
X263604Y110254D01*
X263613Y110341D01*
X263643Y110439D01*
X263672Y110536D01*
Y110546D01*
X263682Y110556D01*
X263701Y110615D01*
X263740Y110693D01*
X263799Y110809D01*
X263867Y110936D01*
X263965Y111083D01*
X264062Y111229D01*
X264189Y111385D01*
Y111395D01*
X264208Y111404D01*
X264257Y111463D01*
X264335Y111551D01*
X264452Y111668D01*
X264599Y111804D01*
X264774Y111970D01*
X264989Y112156D01*
X265223Y112360D01*
X265233Y112370D01*
X265272Y112399D01*
X265320Y112438D01*
X265389Y112507D01*
X265476Y112575D01*
X265574Y112663D01*
X265788Y112848D01*
X266023Y113072D01*
X266257Y113297D01*
X266374Y113404D01*
X266471Y113511D01*
X266559Y113619D01*
X266637Y113716D01*
Y113726D01*
X266657Y113736D01*
X266676Y113765D01*
X266696Y113804D01*
X266754Y113901D01*
X266822Y114028D01*
X266891Y114174D01*
X266949Y114331D01*
X266988Y114506D01*
X267008Y114672D01*
Y114682D01*
Y114691D01*
X266998Y114750D01*
X266988Y114838D01*
X266969Y114945D01*
X266920Y115072D01*
X266861Y115199D01*
X266783Y115335D01*
X266666Y115462D01*
X266647Y115472D01*
X266608Y115511D01*
X266530Y115560D01*
X266432Y115628D01*
X266305Y115686D01*
X266159Y115735D01*
X265984Y115774D01*
X265788Y115784D01*
X265730D01*
X265691Y115774D01*
X265593Y115764D01*
X265467Y115745D01*
X265320Y115696D01*
X265164Y115638D01*
X265018Y115550D01*
X264881Y115433D01*
X264872Y115413D01*
X264833Y115374D01*
X264774Y115296D01*
X264716Y115189D01*
X264647Y115052D01*
X264599Y114896D01*
X264559Y114711D01*
X264540Y114496D01*
X263731Y114584D01*
Y114594D01*
Y114623D01*
X263740Y114672D01*
X263750Y114731D01*
X263769Y114809D01*
X263779Y114896D01*
X263838Y115091D01*
X263916Y115316D01*
X264023Y115540D01*
X264169Y115764D01*
X264247Y115862D01*
X264345Y115959D01*
X264355Y115969D01*
X264374Y115979D01*
X264403Y116008D01*
X264443Y116038D01*
X264501Y116067D01*
X264569Y116116D01*
X264647Y116154D01*
X264735Y116203D01*
X264833Y116242D01*
X264940Y116291D01*
X265067Y116330D01*
X265194Y116359D01*
X265486Y116418D01*
X265642Y116428D01*
X265808Y116437D01*
X265896D01*
X265964Y116428D01*
D02*
G37*
G36*
X259849Y110751D02*
X262999D01*
Y110000D01*
X259000D01*
Y116408D01*
X259849D01*
Y110751D01*
D02*
G37*
G36*
X123180Y95613D02*
X123258Y95603D01*
X123355Y95593D01*
X123462Y95584D01*
X123580Y95564D01*
X123833Y95506D01*
X124106Y95418D01*
X124243Y95359D01*
X124379Y95291D01*
X124506Y95213D01*
X124633Y95125D01*
X124643Y95115D01*
X124662Y95106D01*
X124691Y95077D01*
X124740Y95037D01*
X124789Y94989D01*
X124857Y94920D01*
X124926Y94852D01*
X124994Y94774D01*
X125072Y94677D01*
X125140Y94579D01*
X125218Y94462D01*
X125296Y94335D01*
X125365Y94208D01*
X125433Y94062D01*
X125550Y93750D01*
X124711Y93555D01*
Y93565D01*
X124701Y93584D01*
X124691Y93623D01*
X124672Y93672D01*
X124643Y93730D01*
X124613Y93799D01*
X124545Y93945D01*
X124457Y94111D01*
X124340Y94286D01*
X124213Y94443D01*
X124058Y94579D01*
X124038Y94589D01*
X123980Y94628D01*
X123892Y94677D01*
X123765Y94745D01*
X123619Y94803D01*
X123433Y94852D01*
X123228Y94891D01*
X122994Y94901D01*
X122926D01*
X122877Y94891D01*
X122809D01*
X122741Y94881D01*
X122565Y94852D01*
X122370Y94813D01*
X122165Y94745D01*
X121960Y94657D01*
X121765Y94540D01*
X121756D01*
X121746Y94521D01*
X121687Y94472D01*
X121600Y94394D01*
X121492Y94286D01*
X121385Y94150D01*
X121268Y93994D01*
X121161Y93799D01*
X121073Y93584D01*
Y93574D01*
X121063Y93555D01*
X121053Y93526D01*
X121044Y93477D01*
X121024Y93428D01*
X121014Y93360D01*
X120975Y93204D01*
X120936Y93019D01*
X120907Y92814D01*
X120888Y92589D01*
X120878Y92355D01*
Y92346D01*
Y92316D01*
Y92277D01*
Y92219D01*
X120888Y92150D01*
Y92063D01*
X120897Y91975D01*
X120907Y91877D01*
X120936Y91653D01*
X120975Y91409D01*
X121034Y91165D01*
X121112Y90931D01*
Y90921D01*
X121122Y90902D01*
X121141Y90873D01*
X121161Y90834D01*
X121209Y90717D01*
X121287Y90590D01*
X121395Y90434D01*
X121522Y90288D01*
X121668Y90141D01*
X121843Y90014D01*
X121853D01*
X121863Y90005D01*
X121892Y89985D01*
X121931Y89966D01*
X122038Y89927D01*
X122175Y89868D01*
X122331Y89819D01*
X122516Y89770D01*
X122721Y89732D01*
X122936Y89722D01*
X123004D01*
X123053Y89732D01*
X123111D01*
X123189Y89741D01*
X123355Y89770D01*
X123540Y89819D01*
X123745Y89897D01*
X123940Y89995D01*
X124136Y90131D01*
X124145Y90141D01*
X124155Y90151D01*
X124213Y90209D01*
X124301Y90307D01*
X124409Y90434D01*
X124516Y90609D01*
X124633Y90814D01*
X124731Y91068D01*
X124809Y91351D01*
X125657Y91136D01*
Y91126D01*
X125647Y91087D01*
X125628Y91039D01*
X125608Y90961D01*
X125569Y90882D01*
X125530Y90775D01*
X125491Y90668D01*
X125433Y90551D01*
X125306Y90288D01*
X125130Y90024D01*
X124935Y89770D01*
X124818Y89654D01*
X124691Y89546D01*
X124682Y89536D01*
X124662Y89527D01*
X124623Y89497D01*
X124565Y89458D01*
X124496Y89419D01*
X124418Y89371D01*
X124331Y89322D01*
X124223Y89273D01*
X124106Y89224D01*
X123980Y89176D01*
X123833Y89127D01*
X123687Y89088D01*
X123365Y89019D01*
X123189Y89010D01*
X123004Y89000D01*
X122907D01*
X122829Y89010D01*
X122741D01*
X122643Y89019D01*
X122526Y89039D01*
X122409Y89049D01*
X122136Y89107D01*
X121853Y89176D01*
X121580Y89283D01*
X121444Y89341D01*
X121317Y89419D01*
X121307Y89429D01*
X121287Y89439D01*
X121258Y89468D01*
X121209Y89497D01*
X121092Y89595D01*
X120956Y89732D01*
X120790Y89897D01*
X120634Y90112D01*
X120468Y90356D01*
X120332Y90639D01*
Y90648D01*
X120322Y90678D01*
X120302Y90717D01*
X120283Y90775D01*
X120254Y90853D01*
X120224Y90941D01*
X120195Y91039D01*
X120166Y91156D01*
X120136Y91273D01*
X120107Y91409D01*
X120049Y91702D01*
X120010Y92014D01*
X120000Y92355D01*
Y92365D01*
Y92404D01*
Y92453D01*
X120010Y92521D01*
Y92609D01*
X120020Y92716D01*
X120029Y92823D01*
X120049Y92950D01*
X120098Y93223D01*
X120156Y93516D01*
X120254Y93818D01*
X120380Y94101D01*
Y94111D01*
X120400Y94130D01*
X120419Y94169D01*
X120449Y94228D01*
X120488Y94286D01*
X120536Y94355D01*
X120663Y94521D01*
X120809Y94706D01*
X120995Y94891D01*
X121219Y95077D01*
X121463Y95233D01*
X121473D01*
X121492Y95252D01*
X121531Y95272D01*
X121590Y95291D01*
X121648Y95320D01*
X121726Y95359D01*
X121824Y95389D01*
X121921Y95428D01*
X122029Y95467D01*
X122146Y95496D01*
X122409Y95564D01*
X122702Y95603D01*
X123014Y95623D01*
X123111D01*
X123180Y95613D01*
D02*
G37*
G36*
X133626Y95535D02*
X133704Y95525D01*
X133792Y95515D01*
X133889Y95506D01*
X133996Y95476D01*
X134230Y95418D01*
X134474Y95330D01*
X134601Y95272D01*
X134718Y95203D01*
X134825Y95115D01*
X134933Y95028D01*
X134943Y95018D01*
X134952Y95008D01*
X134981Y94979D01*
X135021Y94940D01*
X135059Y94881D01*
X135108Y94823D01*
X135206Y94677D01*
X135303Y94491D01*
X135391Y94277D01*
X135459Y94033D01*
X135469Y93896D01*
X135479Y93760D01*
Y93740D01*
Y93692D01*
X135469Y93614D01*
X135459Y93516D01*
X135440Y93399D01*
X135411Y93272D01*
X135372Y93135D01*
X135313Y92999D01*
X135303Y92979D01*
X135284Y92931D01*
X135245Y92862D01*
X135186Y92765D01*
X135118Y92648D01*
X135030Y92511D01*
X134913Y92375D01*
X134786Y92219D01*
X134767Y92199D01*
X134718Y92141D01*
X134630Y92053D01*
X134572Y91994D01*
X134504Y91926D01*
X134426Y91848D01*
X134328Y91760D01*
X134230Y91672D01*
X134123Y91565D01*
X134006Y91458D01*
X133870Y91341D01*
X133733Y91224D01*
X133577Y91087D01*
X133567Y91077D01*
X133548Y91058D01*
X133509Y91029D01*
X133460Y90990D01*
X133343Y90892D01*
X133197Y90765D01*
X133050Y90629D01*
X132894Y90492D01*
X132767Y90375D01*
X132719Y90326D01*
X132670Y90278D01*
X132660Y90268D01*
X132641Y90239D01*
X132602Y90200D01*
X132553Y90141D01*
X132446Y90014D01*
X132338Y89858D01*
X135489D01*
Y89107D01*
X131246D01*
Y89117D01*
Y89156D01*
Y89215D01*
X131256Y89283D01*
X131265Y89361D01*
X131275Y89449D01*
X131304Y89546D01*
X131334Y89644D01*
Y89654D01*
X131343Y89663D01*
X131363Y89722D01*
X131402Y89800D01*
X131461Y89917D01*
X131529Y90044D01*
X131626Y90190D01*
X131724Y90336D01*
X131851Y90492D01*
Y90502D01*
X131870Y90512D01*
X131919Y90570D01*
X131997Y90658D01*
X132114Y90775D01*
X132260Y90912D01*
X132436Y91077D01*
X132650Y91263D01*
X132885Y91468D01*
X132894Y91477D01*
X132933Y91507D01*
X132982Y91546D01*
X133050Y91614D01*
X133138Y91682D01*
X133236Y91770D01*
X133450Y91955D01*
X133684Y92180D01*
X133918Y92404D01*
X134035Y92511D01*
X134133Y92619D01*
X134221Y92726D01*
X134299Y92823D01*
Y92833D01*
X134318Y92843D01*
X134338Y92872D01*
X134357Y92911D01*
X134416Y93009D01*
X134484Y93135D01*
X134552Y93282D01*
X134611Y93438D01*
X134650Y93614D01*
X134669Y93779D01*
Y93789D01*
Y93799D01*
X134660Y93857D01*
X134650Y93945D01*
X134630Y94052D01*
X134582Y94179D01*
X134523Y94306D01*
X134445Y94443D01*
X134328Y94569D01*
X134309Y94579D01*
X134270Y94618D01*
X134192Y94667D01*
X134094Y94735D01*
X133967Y94794D01*
X133821Y94842D01*
X133645Y94881D01*
X133450Y94891D01*
X133392D01*
X133353Y94881D01*
X133255Y94872D01*
X133128Y94852D01*
X132982Y94803D01*
X132826Y94745D01*
X132680Y94657D01*
X132543Y94540D01*
X132533Y94521D01*
X132494Y94481D01*
X132436Y94403D01*
X132377Y94296D01*
X132309Y94160D01*
X132260Y94004D01*
X132221Y93818D01*
X132202Y93604D01*
X131392Y93692D01*
Y93701D01*
Y93730D01*
X131402Y93779D01*
X131412Y93838D01*
X131431Y93916D01*
X131441Y94004D01*
X131500Y94199D01*
X131578Y94423D01*
X131685Y94647D01*
X131831Y94872D01*
X131909Y94969D01*
X132007Y95067D01*
X132016Y95077D01*
X132036Y95086D01*
X132065Y95115D01*
X132104Y95145D01*
X132163Y95174D01*
X132231Y95223D01*
X132309Y95262D01*
X132397Y95311D01*
X132494Y95350D01*
X132602Y95398D01*
X132728Y95437D01*
X132855Y95467D01*
X133148Y95525D01*
X133304Y95535D01*
X133470Y95545D01*
X133558D01*
X133626Y95535D01*
D02*
G37*
G36*
X129344Y89107D02*
X128554D01*
Y94121D01*
X128544Y94111D01*
X128505Y94072D01*
X128437Y94023D01*
X128349Y93955D01*
X128242Y93867D01*
X128115Y93779D01*
X127969Y93672D01*
X127803Y93574D01*
X127793D01*
X127783Y93565D01*
X127725Y93526D01*
X127637Y93477D01*
X127530Y93418D01*
X127403Y93350D01*
X127266Y93292D01*
X127120Y93223D01*
X126984Y93165D01*
Y93935D01*
X126993D01*
X127013Y93945D01*
X127052Y93965D01*
X127091Y93994D01*
X127149Y94023D01*
X127218Y94052D01*
X127374Y94140D01*
X127549Y94247D01*
X127744Y94374D01*
X127939Y94521D01*
X128125Y94677D01*
X128134Y94686D01*
X128144Y94696D01*
X128203Y94755D01*
X128291Y94842D01*
X128398Y94950D01*
X128515Y95086D01*
X128632Y95233D01*
X128739Y95389D01*
X128827Y95545D01*
X129344D01*
Y89107D01*
D02*
G37*
G36*
X193180Y211613D02*
X193258Y211603D01*
X193355Y211593D01*
X193463Y211584D01*
X193580Y211564D01*
X193833Y211506D01*
X194106Y211418D01*
X194243Y211359D01*
X194379Y211291D01*
X194506Y211213D01*
X194633Y211125D01*
X194643Y211115D01*
X194662Y211106D01*
X194692Y211077D01*
X194740Y211038D01*
X194789Y210989D01*
X194857Y210921D01*
X194925Y210852D01*
X194994Y210774D01*
X195072Y210677D01*
X195140Y210579D01*
X195218Y210462D01*
X195296Y210335D01*
X195364Y210208D01*
X195433Y210062D01*
X195550Y209750D01*
X194711Y209555D01*
Y209565D01*
X194701Y209584D01*
X194692Y209623D01*
X194672Y209672D01*
X194643Y209730D01*
X194613Y209799D01*
X194545Y209945D01*
X194457Y210111D01*
X194340Y210287D01*
X194214Y210443D01*
X194058Y210579D01*
X194038Y210589D01*
X193979Y210628D01*
X193892Y210677D01*
X193765Y210745D01*
X193619Y210803D01*
X193433Y210852D01*
X193228Y210891D01*
X192994Y210901D01*
X192926D01*
X192877Y210891D01*
X192809D01*
X192741Y210881D01*
X192565Y210852D01*
X192370Y210813D01*
X192165Y210745D01*
X191960Y210657D01*
X191765Y210540D01*
X191756D01*
X191746Y210521D01*
X191687Y210472D01*
X191600Y210394D01*
X191492Y210287D01*
X191385Y210150D01*
X191268Y209994D01*
X191161Y209799D01*
X191073Y209584D01*
Y209575D01*
X191063Y209555D01*
X191053Y209526D01*
X191044Y209477D01*
X191024Y209428D01*
X191014Y209360D01*
X190975Y209204D01*
X190936Y209018D01*
X190907Y208814D01*
X190888Y208589D01*
X190878Y208355D01*
Y208346D01*
Y208316D01*
Y208277D01*
Y208219D01*
X190888Y208150D01*
Y208063D01*
X190897Y207975D01*
X190907Y207877D01*
X190936Y207653D01*
X190975Y207409D01*
X191034Y207165D01*
X191112Y206931D01*
Y206922D01*
X191122Y206902D01*
X191141Y206873D01*
X191161Y206834D01*
X191209Y206717D01*
X191287Y206590D01*
X191395Y206434D01*
X191521Y206287D01*
X191668Y206141D01*
X191843Y206014D01*
X191853D01*
X191863Y206005D01*
X191892Y205985D01*
X191931Y205966D01*
X192038Y205927D01*
X192175Y205868D01*
X192331Y205819D01*
X192516Y205771D01*
X192721Y205732D01*
X192936Y205722D01*
X193004D01*
X193053Y205732D01*
X193111D01*
X193189Y205741D01*
X193355Y205771D01*
X193540Y205819D01*
X193745Y205897D01*
X193940Y205995D01*
X194135Y206131D01*
X194145Y206141D01*
X194155Y206151D01*
X194214Y206210D01*
X194301Y206307D01*
X194409Y206434D01*
X194516Y206609D01*
X194633Y206814D01*
X194730Y207068D01*
X194809Y207351D01*
X195657Y207136D01*
Y207126D01*
X195647Y207087D01*
X195628Y207038D01*
X195608Y206961D01*
X195569Y206882D01*
X195530Y206775D01*
X195491Y206668D01*
X195433Y206551D01*
X195306Y206287D01*
X195130Y206024D01*
X194935Y205771D01*
X194818Y205653D01*
X194692Y205546D01*
X194682Y205536D01*
X194662Y205527D01*
X194623Y205497D01*
X194565Y205458D01*
X194496Y205419D01*
X194418Y205371D01*
X194331Y205322D01*
X194223Y205273D01*
X194106Y205224D01*
X193979Y205176D01*
X193833Y205127D01*
X193687Y205088D01*
X193365Y205019D01*
X193189Y205010D01*
X193004Y205000D01*
X192906D01*
X192829Y205010D01*
X192741D01*
X192643Y205019D01*
X192526Y205039D01*
X192409Y205049D01*
X192136Y205107D01*
X191853Y205176D01*
X191580Y205283D01*
X191444Y205341D01*
X191317Y205419D01*
X191307Y205429D01*
X191287Y205439D01*
X191258Y205468D01*
X191209Y205497D01*
X191092Y205595D01*
X190956Y205732D01*
X190790Y205897D01*
X190634Y206112D01*
X190468Y206356D01*
X190332Y206639D01*
Y206648D01*
X190322Y206678D01*
X190302Y206717D01*
X190283Y206775D01*
X190254Y206853D01*
X190224Y206941D01*
X190195Y207038D01*
X190166Y207156D01*
X190137Y207273D01*
X190107Y207409D01*
X190049Y207702D01*
X190010Y208014D01*
X190000Y208355D01*
Y208365D01*
Y208404D01*
Y208453D01*
X190010Y208521D01*
Y208609D01*
X190019Y208716D01*
X190029Y208823D01*
X190049Y208950D01*
X190098Y209223D01*
X190156Y209516D01*
X190254Y209818D01*
X190380Y210101D01*
Y210111D01*
X190400Y210130D01*
X190419Y210169D01*
X190449Y210228D01*
X190488Y210287D01*
X190536Y210355D01*
X190663Y210521D01*
X190809Y210706D01*
X190995Y210891D01*
X191219Y211077D01*
X191463Y211233D01*
X191473D01*
X191492Y211252D01*
X191531Y211272D01*
X191590Y211291D01*
X191648Y211320D01*
X191726Y211359D01*
X191824Y211389D01*
X191921Y211428D01*
X192029Y211467D01*
X192146Y211496D01*
X192409Y211564D01*
X192702Y211603D01*
X193014Y211623D01*
X193111D01*
X193180Y211613D01*
D02*
G37*
G36*
X203548Y211535D02*
X203675Y211515D01*
X203821Y211486D01*
X203987Y211447D01*
X204152Y211389D01*
X204318Y211311D01*
X204328D01*
X204338Y211301D01*
X204396Y211272D01*
X204474Y211223D01*
X204572Y211154D01*
X204679Y211067D01*
X204796Y210959D01*
X204904Y210833D01*
X205001Y210696D01*
X205011Y210677D01*
X205040Y210628D01*
X205079Y210550D01*
X205118Y210452D01*
X205157Y210326D01*
X205196Y210189D01*
X205225Y210043D01*
X205235Y209877D01*
Y209857D01*
Y209809D01*
X205225Y209730D01*
X205206Y209633D01*
X205177Y209516D01*
X205138Y209389D01*
X205089Y209253D01*
X205011Y209126D01*
X205001Y209106D01*
X204972Y209067D01*
X204913Y209009D01*
X204845Y208931D01*
X204747Y208843D01*
X204640Y208755D01*
X204504Y208658D01*
X204347Y208580D01*
X204357D01*
X204377Y208570D01*
X204406D01*
X204445Y208550D01*
X204543Y208521D01*
X204669Y208463D01*
X204806Y208394D01*
X204952Y208297D01*
X205098Y208180D01*
X205225Y208033D01*
X205235Y208014D01*
X205274Y207955D01*
X205323Y207868D01*
X205391Y207750D01*
X205450Y207604D01*
X205498Y207429D01*
X205537Y207224D01*
X205547Y206999D01*
Y206990D01*
Y206961D01*
Y206922D01*
X205537Y206863D01*
X205528Y206785D01*
X205518Y206707D01*
X205498Y206609D01*
X205469Y206512D01*
X205401Y206287D01*
X205352Y206161D01*
X205284Y206044D01*
X205216Y205927D01*
X205138Y205810D01*
X205040Y205693D01*
X204933Y205576D01*
X204923Y205566D01*
X204904Y205546D01*
X204874Y205527D01*
X204825Y205488D01*
X204767Y205439D01*
X204689Y205390D01*
X204601Y205341D01*
X204513Y205293D01*
X204406Y205234D01*
X204289Y205185D01*
X204162Y205137D01*
X204026Y205088D01*
X203879Y205049D01*
X203723Y205029D01*
X203557Y205010D01*
X203392Y205000D01*
X203314D01*
X203255Y205010D01*
X203177Y205019D01*
X203099Y205029D01*
X203001Y205039D01*
X202904Y205058D01*
X202680Y205117D01*
X202446Y205215D01*
X202328Y205263D01*
X202221Y205332D01*
X202104Y205410D01*
X201997Y205497D01*
X201987Y205507D01*
X201977Y205517D01*
X201948Y205546D01*
X201909Y205585D01*
X201870Y205644D01*
X201821Y205702D01*
X201763Y205771D01*
X201714Y205849D01*
X201597Y206044D01*
X201500Y206268D01*
X201412Y206522D01*
X201382Y206658D01*
X201363Y206804D01*
X202153Y206912D01*
Y206902D01*
X202163Y206882D01*
Y206843D01*
X202182Y206804D01*
X202211Y206687D01*
X202260Y206541D01*
X202319Y206385D01*
X202397Y206219D01*
X202494Y206073D01*
X202602Y205946D01*
X202621Y205936D01*
X202660Y205897D01*
X202728Y205858D01*
X202826Y205800D01*
X202933Y205751D01*
X203070Y205702D01*
X203226Y205663D01*
X203392Y205653D01*
X203450D01*
X203489Y205663D01*
X203587Y205673D01*
X203713Y205702D01*
X203870Y205751D01*
X204026Y205810D01*
X204182Y205907D01*
X204328Y206034D01*
X204347Y206053D01*
X204387Y206102D01*
X204445Y206180D01*
X204523Y206297D01*
X204591Y206434D01*
X204650Y206600D01*
X204689Y206785D01*
X204708Y206990D01*
Y206999D01*
Y207009D01*
Y207038D01*
X204699Y207078D01*
X204689Y207175D01*
X204660Y207302D01*
X204621Y207438D01*
X204552Y207595D01*
X204465Y207741D01*
X204347Y207877D01*
X204328Y207897D01*
X204289Y207936D01*
X204211Y207985D01*
X204104Y208053D01*
X203977Y208121D01*
X203821Y208170D01*
X203655Y208209D01*
X203460Y208228D01*
X203372D01*
X203304Y208219D01*
X203226Y208209D01*
X203128Y208199D01*
X203021Y208180D01*
X202904Y208150D01*
X202992Y208843D01*
X203041D01*
X203080Y208833D01*
X203206D01*
X203294Y208843D01*
X203421Y208862D01*
X203557Y208892D01*
X203704Y208941D01*
X203860Y208999D01*
X204016Y209087D01*
X204035Y209097D01*
X204084Y209135D01*
X204143Y209204D01*
X204221Y209292D01*
X204299Y209399D01*
X204357Y209535D01*
X204406Y209701D01*
X204426Y209896D01*
Y209906D01*
Y209916D01*
Y209965D01*
X204406Y210043D01*
X204387Y210150D01*
X204357Y210257D01*
X204299Y210374D01*
X204230Y210501D01*
X204133Y210608D01*
X204123Y210618D01*
X204084Y210657D01*
X204016Y210706D01*
X203928Y210755D01*
X203821Y210813D01*
X203694Y210852D01*
X203548Y210891D01*
X203382Y210901D01*
X203304D01*
X203216Y210881D01*
X203119Y210862D01*
X202992Y210833D01*
X202865Y210774D01*
X202738Y210706D01*
X202611Y210608D01*
X202602Y210599D01*
X202563Y210560D01*
X202514Y210491D01*
X202455Y210394D01*
X202387Y210277D01*
X202328Y210130D01*
X202270Y209955D01*
X202231Y209750D01*
X201441Y209887D01*
Y209896D01*
X201451Y209926D01*
X201460Y209965D01*
X201470Y210013D01*
X201490Y210082D01*
X201509Y210160D01*
X201577Y210335D01*
X201656Y210530D01*
X201773Y210735D01*
X201909Y210930D01*
X202085Y211106D01*
X202094Y211115D01*
X202104Y211125D01*
X202134Y211145D01*
X202182Y211174D01*
X202231Y211203D01*
X202290Y211242D01*
X202436Y211330D01*
X202621Y211408D01*
X202845Y211476D01*
X203089Y211525D01*
X203226Y211545D01*
X203450D01*
X203548Y211535D01*
D02*
G37*
G36*
X199344Y205107D02*
X198554D01*
Y210121D01*
X198544Y210111D01*
X198505Y210072D01*
X198437Y210023D01*
X198349Y209955D01*
X198242Y209867D01*
X198115Y209779D01*
X197969Y209672D01*
X197803Y209575D01*
X197793D01*
X197783Y209565D01*
X197725Y209526D01*
X197637Y209477D01*
X197530Y209418D01*
X197403Y209350D01*
X197266Y209292D01*
X197120Y209223D01*
X196984Y209165D01*
Y209935D01*
X196993D01*
X197013Y209945D01*
X197052Y209965D01*
X197091Y209994D01*
X197149Y210023D01*
X197218Y210052D01*
X197374Y210140D01*
X197549Y210247D01*
X197744Y210374D01*
X197939Y210521D01*
X198125Y210677D01*
X198134Y210686D01*
X198144Y210696D01*
X198203Y210755D01*
X198291Y210842D01*
X198398Y210950D01*
X198515Y211086D01*
X198632Y211233D01*
X198739Y211389D01*
X198827Y211545D01*
X199344D01*
Y205107D01*
D02*
G37*
G36*
X168171Y133990D02*
X168259D01*
X168357Y133980D01*
X168474Y133961D01*
X168591Y133951D01*
X168864Y133893D01*
X169147Y133824D01*
X169420Y133717D01*
X169557Y133659D01*
X169683Y133581D01*
X169693Y133571D01*
X169713Y133561D01*
X169742Y133532D01*
X169790Y133503D01*
X169908Y133405D01*
X170044Y133268D01*
X170210Y133103D01*
X170366Y132888D01*
X170532Y132644D01*
X170668Y132361D01*
Y132352D01*
X170678Y132322D01*
X170698Y132283D01*
X170717Y132225D01*
X170746Y132147D01*
X170776Y132059D01*
X170805Y131961D01*
X170834Y131844D01*
X170863Y131727D01*
X170893Y131591D01*
X170951Y131298D01*
X170990Y130986D01*
X171000Y130645D01*
Y130635D01*
Y130596D01*
Y130547D01*
X170990Y130479D01*
Y130391D01*
X170980Y130284D01*
X170971Y130176D01*
X170951Y130050D01*
X170903Y129777D01*
X170844Y129484D01*
X170746Y129182D01*
X170620Y128899D01*
Y128889D01*
X170600Y128869D01*
X170581Y128830D01*
X170551Y128772D01*
X170512Y128714D01*
X170464Y128645D01*
X170337Y128479D01*
X170190Y128294D01*
X170005Y128109D01*
X169781Y127923D01*
X169537Y127767D01*
X169527D01*
X169508Y127748D01*
X169469Y127728D01*
X169410Y127709D01*
X169352Y127680D01*
X169274Y127641D01*
X169176Y127611D01*
X169079Y127572D01*
X168971Y127533D01*
X168854Y127504D01*
X168591Y127436D01*
X168298Y127397D01*
X167986Y127377D01*
X167889D01*
X167820Y127387D01*
X167742Y127397D01*
X167645Y127407D01*
X167537Y127416D01*
X167420Y127436D01*
X167167Y127494D01*
X166894Y127582D01*
X166757Y127641D01*
X166621Y127709D01*
X166494Y127787D01*
X166367Y127875D01*
X166357Y127884D01*
X166338Y127894D01*
X166308Y127923D01*
X166260Y127963D01*
X166211Y128011D01*
X166143Y128080D01*
X166074Y128148D01*
X166006Y128226D01*
X165928Y128323D01*
X165860Y128421D01*
X165782Y128538D01*
X165704Y128665D01*
X165636Y128792D01*
X165567Y128938D01*
X165450Y129250D01*
X166289Y129445D01*
Y129435D01*
X166299Y129416D01*
X166308Y129377D01*
X166328Y129328D01*
X166357Y129269D01*
X166387Y129201D01*
X166455Y129055D01*
X166543Y128889D01*
X166660Y128714D01*
X166786Y128557D01*
X166943Y128421D01*
X166962Y128411D01*
X167020Y128372D01*
X167108Y128323D01*
X167235Y128255D01*
X167381Y128196D01*
X167567Y128148D01*
X167771Y128109D01*
X168006Y128099D01*
X168074D01*
X168123Y128109D01*
X168191D01*
X168259Y128118D01*
X168435Y128148D01*
X168630Y128187D01*
X168835Y128255D01*
X169039Y128343D01*
X169235Y128460D01*
X169244D01*
X169254Y128479D01*
X169313Y128528D01*
X169400Y128606D01*
X169508Y128714D01*
X169615Y128850D01*
X169732Y129006D01*
X169839Y129201D01*
X169927Y129416D01*
Y129425D01*
X169937Y129445D01*
X169947Y129474D01*
X169956Y129523D01*
X169976Y129572D01*
X169986Y129640D01*
X170025Y129796D01*
X170064Y129981D01*
X170093Y130186D01*
X170112Y130411D01*
X170122Y130645D01*
Y130654D01*
Y130684D01*
Y130723D01*
Y130781D01*
X170112Y130850D01*
Y130937D01*
X170103Y131025D01*
X170093Y131123D01*
X170064Y131347D01*
X170025Y131591D01*
X169966Y131835D01*
X169888Y132069D01*
Y132079D01*
X169878Y132098D01*
X169859Y132127D01*
X169839Y132166D01*
X169790Y132283D01*
X169713Y132410D01*
X169605Y132566D01*
X169478Y132712D01*
X169332Y132859D01*
X169157Y132986D01*
X169147D01*
X169137Y132995D01*
X169108Y133015D01*
X169069Y133034D01*
X168962Y133073D01*
X168825Y133132D01*
X168669Y133181D01*
X168484Y133229D01*
X168279Y133268D01*
X168064Y133278D01*
X167996D01*
X167947Y133268D01*
X167889D01*
X167811Y133259D01*
X167645Y133229D01*
X167459Y133181D01*
X167255Y133103D01*
X167059Y133005D01*
X166864Y132868D01*
X166855Y132859D01*
X166845Y132849D01*
X166786Y132790D01*
X166699Y132693D01*
X166591Y132566D01*
X166484Y132391D01*
X166367Y132186D01*
X166269Y131932D01*
X166192Y131649D01*
X165343Y131864D01*
Y131874D01*
X165353Y131913D01*
X165372Y131961D01*
X165392Y132039D01*
X165431Y132118D01*
X165470Y132225D01*
X165509Y132332D01*
X165567Y132449D01*
X165694Y132712D01*
X165870Y132976D01*
X166065Y133229D01*
X166182Y133346D01*
X166308Y133454D01*
X166318Y133463D01*
X166338Y133473D01*
X166377Y133503D01*
X166435Y133541D01*
X166504Y133581D01*
X166582Y133629D01*
X166669Y133678D01*
X166777Y133727D01*
X166894Y133776D01*
X167020Y133824D01*
X167167Y133873D01*
X167313Y133912D01*
X167635Y133980D01*
X167811Y133990D01*
X167996Y134000D01*
X168093D01*
X168171Y133990D01*
D02*
G37*
G36*
X162446Y128879D02*
X162456Y128889D01*
X162495Y128928D01*
X162563Y128977D01*
X162651Y129045D01*
X162758Y129133D01*
X162885Y129221D01*
X163031Y129328D01*
X163197Y129425D01*
X163207D01*
X163217Y129435D01*
X163275Y129474D01*
X163363Y129523D01*
X163470Y129582D01*
X163597Y129650D01*
X163734Y129708D01*
X163880Y129777D01*
X164016Y129835D01*
Y129065D01*
X164007D01*
X163987Y129055D01*
X163948Y129035D01*
X163909Y129006D01*
X163851Y128977D01*
X163782Y128948D01*
X163626Y128860D01*
X163451Y128752D01*
X163256Y128626D01*
X163061Y128479D01*
X162875Y128323D01*
X162866Y128314D01*
X162856Y128304D01*
X162797Y128245D01*
X162709Y128158D01*
X162602Y128050D01*
X162485Y127914D01*
X162368Y127767D01*
X162261Y127611D01*
X162173Y127455D01*
X161656D01*
Y133893D01*
X162446D01*
Y128879D01*
D02*
G37*
G36*
X157716Y133990D02*
X157794Y133980D01*
X157881Y133961D01*
X157979Y133941D01*
X158086Y133922D01*
X158320Y133844D01*
X158447Y133785D01*
X158564Y133727D01*
X158691Y133649D01*
X158808Y133561D01*
X158915Y133463D01*
X159023Y133346D01*
X159032Y133337D01*
X159052Y133307D01*
X159081Y133259D01*
X159120Y133190D01*
X159169Y133103D01*
X159218Y132995D01*
X159276Y132868D01*
X159335Y132712D01*
X159393Y132547D01*
X159452Y132352D01*
X159501Y132137D01*
X159549Y131903D01*
X159588Y131640D01*
X159618Y131367D01*
X159637Y131054D01*
X159647Y130732D01*
Y130723D01*
Y130684D01*
Y130625D01*
Y130547D01*
X159637Y130450D01*
Y130342D01*
X159627Y130216D01*
X159618Y130079D01*
X159588Y129786D01*
X159549Y129484D01*
X159501Y129182D01*
X159461Y129045D01*
X159423Y128909D01*
Y128899D01*
X159413Y128879D01*
X159393Y128840D01*
X159374Y128792D01*
X159354Y128733D01*
X159325Y128665D01*
X159247Y128509D01*
X159149Y128333D01*
X159032Y128158D01*
X158896Y127992D01*
X158730Y127836D01*
X158720D01*
X158710Y127816D01*
X158681Y127797D01*
X158642Y127777D01*
X158545Y127719D01*
X158408Y127641D01*
X158242Y127572D01*
X158038Y127514D01*
X157813Y127475D01*
X157559Y127455D01*
X157472D01*
X157374Y127465D01*
X157257Y127485D01*
X157121Y127504D01*
X156965Y127543D01*
X156809Y127602D01*
X156662Y127670D01*
X156643Y127680D01*
X156594Y127709D01*
X156526Y127758D01*
X156428Y127816D01*
X156331Y127904D01*
X156223Y128011D01*
X156116Y128128D01*
X156018Y128265D01*
X156009Y128284D01*
X155979Y128333D01*
X155931Y128421D01*
X155872Y128528D01*
X155814Y128665D01*
X155745Y128830D01*
X155677Y129016D01*
X155619Y129221D01*
Y129230D01*
X155609Y129250D01*
Y129279D01*
X155599Y129328D01*
X155580Y129377D01*
X155570Y129445D01*
X155560Y129533D01*
X155541Y129621D01*
X155531Y129728D01*
X155521Y129835D01*
X155501Y129962D01*
X155492Y130098D01*
X155482Y130245D01*
Y130391D01*
X155472Y130732D01*
Y130742D01*
Y130781D01*
Y130840D01*
Y130918D01*
X155482Y131015D01*
Y131123D01*
X155492Y131249D01*
X155501Y131386D01*
X155531Y131679D01*
X155570Y131981D01*
X155628Y132283D01*
X155667Y132420D01*
X155706Y132556D01*
Y132566D01*
X155716Y132586D01*
X155726Y132625D01*
X155745Y132673D01*
X155775Y132732D01*
X155804Y132790D01*
X155882Y132947D01*
X155979Y133122D01*
X156096Y133298D01*
X156233Y133473D01*
X156399Y133629D01*
X156409D01*
X156418Y133649D01*
X156448Y133659D01*
X156477Y133688D01*
X156584Y133746D01*
X156711Y133815D01*
X156887Y133883D01*
X157082Y133941D01*
X157306Y133980D01*
X157559Y134000D01*
X157647D01*
X157716Y133990D01*
D02*
G37*
G36*
X222986Y241990D02*
X223298Y241951D01*
X223591Y241893D01*
X223727Y241863D01*
X223844Y241834D01*
X223962Y241805D01*
X224059Y241776D01*
X224147Y241746D01*
X224225Y241717D01*
X224283Y241698D01*
X224322Y241678D01*
X224352Y241668D01*
X224361D01*
X224644Y241532D01*
X224888Y241366D01*
X225103Y241210D01*
X225268Y241044D01*
X225405Y240908D01*
X225502Y240791D01*
X225532Y240742D01*
X225561Y240713D01*
X225571Y240693D01*
X225581Y240683D01*
X225659Y240557D01*
X225717Y240420D01*
X225824Y240147D01*
X225893Y239864D01*
X225951Y239591D01*
X225961Y239474D01*
X225980Y239357D01*
X225990Y239259D01*
Y239172D01*
X226000Y239093D01*
Y238996D01*
X225990Y238811D01*
X225980Y238635D01*
X225912Y238313D01*
X225873Y238167D01*
X225824Y238020D01*
X225776Y237894D01*
X225727Y237777D01*
X225678Y237669D01*
X225629Y237582D01*
X225581Y237504D01*
X225542Y237435D01*
X225502Y237377D01*
X225473Y237338D01*
X225464Y237318D01*
X225454Y237309D01*
X225347Y237182D01*
X225229Y237065D01*
X224976Y236870D01*
X224713Y236694D01*
X224449Y236567D01*
X224332Y236509D01*
X224225Y236470D01*
X224118Y236431D01*
X224039Y236392D01*
X223962Y236372D01*
X223913Y236353D01*
X223874Y236343D01*
X223864D01*
X223649Y237192D01*
X223932Y237269D01*
X224186Y237367D01*
X224391Y237484D01*
X224566Y237591D01*
X224693Y237699D01*
X224790Y237786D01*
X224849Y237845D01*
X224859Y237855D01*
X224869Y237864D01*
X225005Y238060D01*
X225103Y238255D01*
X225181Y238459D01*
X225229Y238645D01*
X225259Y238811D01*
X225268Y238889D01*
Y238947D01*
X225278Y238996D01*
Y239064D01*
X225268Y239279D01*
X225229Y239484D01*
X225181Y239669D01*
X225132Y239825D01*
X225073Y239961D01*
X225034Y240069D01*
X225015Y240108D01*
X224995Y240137D01*
X224986Y240147D01*
Y240157D01*
X224859Y240332D01*
X224713Y240478D01*
X224566Y240605D01*
X224410Y240713D01*
X224283Y240791D01*
X224166Y240839D01*
X224127Y240859D01*
X224098Y240878D01*
X224079Y240888D01*
X224069D01*
X223835Y240966D01*
X223591Y241025D01*
X223347Y241064D01*
X223123Y241093D01*
X223025Y241103D01*
X222937Y241112D01*
X222850D01*
X222781Y241122D01*
X222723D01*
X222684D01*
X222654D01*
X222645D01*
X222411Y241112D01*
X222186Y241093D01*
X221982Y241064D01*
X221796Y241025D01*
X221640Y240986D01*
X221572Y240976D01*
X221523Y240956D01*
X221474Y240947D01*
X221445Y240937D01*
X221425Y240927D01*
X221416D01*
X221201Y240839D01*
X221006Y240732D01*
X220850Y240615D01*
X220714Y240508D01*
X220606Y240400D01*
X220528Y240313D01*
X220479Y240254D01*
X220460Y240244D01*
Y240235D01*
X220343Y240040D01*
X220255Y239835D01*
X220187Y239630D01*
X220148Y239435D01*
X220119Y239259D01*
X220109Y239191D01*
Y239123D01*
X220099Y239074D01*
Y239006D01*
X220109Y238772D01*
X220148Y238567D01*
X220197Y238381D01*
X220255Y238235D01*
X220323Y238108D01*
X220372Y238020D01*
X220411Y237962D01*
X220421Y237943D01*
X220557Y237786D01*
X220714Y237660D01*
X220889Y237543D01*
X221055Y237455D01*
X221201Y237386D01*
X221269Y237357D01*
X221328Y237328D01*
X221377Y237309D01*
X221416Y237299D01*
X221435Y237289D01*
X221445D01*
X221250Y236450D01*
X220938Y236567D01*
X220792Y236635D01*
X220665Y236704D01*
X220538Y236782D01*
X220421Y236860D01*
X220323Y236928D01*
X220226Y237006D01*
X220148Y237074D01*
X220079Y237143D01*
X220011Y237211D01*
X219963Y237260D01*
X219923Y237309D01*
X219894Y237338D01*
X219884Y237357D01*
X219875Y237367D01*
X219787Y237494D01*
X219709Y237621D01*
X219641Y237757D01*
X219582Y237894D01*
X219494Y238167D01*
X219436Y238420D01*
X219416Y238538D01*
X219407Y238645D01*
X219397Y238742D01*
X219387Y238820D01*
X219377Y238889D01*
Y238986D01*
X219397Y239298D01*
X219436Y239591D01*
X219504Y239854D01*
X219533Y239971D01*
X219572Y240079D01*
X219611Y240176D01*
X219641Y240274D01*
X219680Y240352D01*
X219709Y240410D01*
X219728Y240469D01*
X219748Y240508D01*
X219767Y240527D01*
Y240537D01*
X219923Y240781D01*
X220109Y241005D01*
X220294Y241190D01*
X220479Y241337D01*
X220645Y241464D01*
X220714Y241512D01*
X220772Y241551D01*
X220831Y241581D01*
X220870Y241600D01*
X220889Y241620D01*
X220899D01*
X221182Y241746D01*
X221484Y241844D01*
X221777Y241903D01*
X222050Y241951D01*
X222177Y241971D01*
X222284Y241980D01*
X222391Y241990D01*
X222479D01*
X222547Y242000D01*
X222596D01*
X222635D01*
X222645D01*
X222986Y241990D01*
D02*
G37*
G36*
X225893Y231486D02*
X225142D01*
Y234636D01*
X224986Y234529D01*
X224859Y234422D01*
X224800Y234373D01*
X224761Y234334D01*
X224732Y234314D01*
X224722Y234304D01*
X224674Y234256D01*
X224625Y234207D01*
X224508Y234080D01*
X224371Y233924D01*
X224235Y233778D01*
X224108Y233631D01*
X224010Y233514D01*
X223971Y233466D01*
X223942Y233427D01*
X223923Y233407D01*
X223913Y233397D01*
X223776Y233241D01*
X223659Y233105D01*
X223542Y232968D01*
X223435Y232851D01*
X223328Y232744D01*
X223240Y232646D01*
X223152Y232549D01*
X223074Y232471D01*
X223006Y232402D01*
X222947Y232344D01*
X222859Y232256D01*
X222801Y232207D01*
X222781Y232188D01*
X222625Y232061D01*
X222489Y231944D01*
X222352Y231856D01*
X222235Y231788D01*
X222138Y231730D01*
X222069Y231690D01*
X222020Y231671D01*
X222001Y231661D01*
X221864Y231603D01*
X221728Y231564D01*
X221601Y231534D01*
X221484Y231515D01*
X221387Y231505D01*
X221308Y231495D01*
X221260D01*
X221240D01*
X221104Y231505D01*
X220967Y231515D01*
X220723Y231583D01*
X220509Y231671D01*
X220323Y231768D01*
X220177Y231866D01*
X220119Y231915D01*
X220060Y231954D01*
X220021Y231993D01*
X219992Y232022D01*
X219982Y232032D01*
X219972Y232042D01*
X219884Y232149D01*
X219797Y232256D01*
X219728Y232373D01*
X219670Y232500D01*
X219582Y232744D01*
X219524Y232978D01*
X219494Y233085D01*
X219485Y233183D01*
X219475Y233270D01*
X219465Y233349D01*
X219455Y233417D01*
Y233505D01*
X219465Y233670D01*
X219475Y233827D01*
X219533Y234119D01*
X219563Y234246D01*
X219602Y234373D01*
X219650Y234480D01*
X219689Y234578D01*
X219738Y234665D01*
X219777Y234743D01*
X219826Y234812D01*
X219855Y234870D01*
X219884Y234909D01*
X219914Y234938D01*
X219923Y234958D01*
X219933Y234968D01*
X220031Y235065D01*
X220128Y235143D01*
X220353Y235289D01*
X220577Y235397D01*
X220801Y235475D01*
X220996Y235533D01*
X221084Y235543D01*
X221162Y235563D01*
X221221Y235572D01*
X221269Y235582D01*
X221299D01*
X221308D01*
X221396Y234773D01*
X221182Y234753D01*
X220996Y234714D01*
X220840Y234665D01*
X220704Y234597D01*
X220597Y234538D01*
X220518Y234480D01*
X220479Y234441D01*
X220460Y234431D01*
X220343Y234295D01*
X220255Y234148D01*
X220197Y233992D01*
X220148Y233846D01*
X220128Y233719D01*
X220119Y233622D01*
X220109Y233583D01*
Y233524D01*
X220119Y233329D01*
X220158Y233153D01*
X220206Y233007D01*
X220265Y232880D01*
X220333Y232783D01*
X220382Y232705D01*
X220421Y232666D01*
X220431Y232646D01*
X220557Y232529D01*
X220694Y232451D01*
X220821Y232393D01*
X220948Y232344D01*
X221055Y232324D01*
X221143Y232315D01*
X221201Y232305D01*
X221211D01*
X221221D01*
X221387Y232324D01*
X221562Y232363D01*
X221718Y232422D01*
X221864Y232490D01*
X221991Y232558D01*
X222089Y232617D01*
X222128Y232637D01*
X222157Y232656D01*
X222167Y232676D01*
X222177D01*
X222274Y232754D01*
X222381Y232841D01*
X222489Y232939D01*
X222596Y233056D01*
X222820Y233290D01*
X223045Y233524D01*
X223230Y233739D01*
X223318Y233836D01*
X223386Y233924D01*
X223454Y233992D01*
X223493Y234041D01*
X223523Y234080D01*
X223532Y234090D01*
X223737Y234324D01*
X223923Y234538D01*
X224088Y234714D01*
X224225Y234860D01*
X224342Y234977D01*
X224430Y235055D01*
X224488Y235104D01*
X224498Y235124D01*
X224508D01*
X224664Y235250D01*
X224810Y235348D01*
X224956Y235446D01*
X225083Y235514D01*
X225200Y235572D01*
X225278Y235611D01*
X225337Y235631D01*
X225347Y235641D01*
X225356D01*
X225454Y235670D01*
X225551Y235699D01*
X225639Y235709D01*
X225717Y235719D01*
X225785Y235728D01*
X225844D01*
X225883D01*
X225893D01*
Y231486D01*
D02*
G37*
G36*
X261298Y313603D02*
X261591Y313564D01*
X261854Y313496D01*
X261971Y313467D01*
X262078Y313428D01*
X262176Y313389D01*
X262274Y313359D01*
X262352Y313320D01*
X262410Y313291D01*
X262469Y313272D01*
X262508Y313252D01*
X262527Y313233D01*
X262537D01*
X262781Y313076D01*
X263005Y312891D01*
X263190Y312706D01*
X263337Y312521D01*
X263464Y312355D01*
X263512Y312286D01*
X263551Y312228D01*
X263581Y312169D01*
X263600Y312130D01*
X263620Y312111D01*
Y312101D01*
X263746Y311818D01*
X263844Y311516D01*
X263902Y311223D01*
X263951Y310950D01*
X263971Y310823D01*
X263981Y310716D01*
X263990Y310609D01*
Y310521D01*
X264000Y310453D01*
Y310404D01*
Y310365D01*
Y310355D01*
X263990Y310014D01*
X263951Y309702D01*
X263893Y309409D01*
X263864Y309273D01*
X263834Y309156D01*
X263805Y309039D01*
X263776Y308941D01*
X263746Y308853D01*
X263717Y308775D01*
X263698Y308717D01*
X263678Y308678D01*
X263668Y308648D01*
Y308639D01*
X263532Y308356D01*
X263366Y308112D01*
X263210Y307897D01*
X263044Y307731D01*
X262908Y307595D01*
X262791Y307498D01*
X262742Y307468D01*
X262712Y307439D01*
X262693Y307429D01*
X262683Y307419D01*
X262556Y307341D01*
X262420Y307283D01*
X262147Y307176D01*
X261864Y307107D01*
X261591Y307049D01*
X261474Y307039D01*
X261357Y307020D01*
X261259Y307010D01*
X261171D01*
X261093Y307000D01*
X260996D01*
X260811Y307010D01*
X260635Y307020D01*
X260313Y307088D01*
X260167Y307127D01*
X260021Y307176D01*
X259894Y307224D01*
X259777Y307273D01*
X259669Y307322D01*
X259582Y307371D01*
X259504Y307419D01*
X259435Y307458D01*
X259377Y307498D01*
X259338Y307527D01*
X259318Y307537D01*
X259308Y307546D01*
X259182Y307654D01*
X259065Y307771D01*
X258870Y308024D01*
X258694Y308288D01*
X258567Y308551D01*
X258509Y308668D01*
X258470Y308775D01*
X258431Y308883D01*
X258392Y308960D01*
X258372Y309039D01*
X258353Y309087D01*
X258343Y309126D01*
Y309136D01*
X259191Y309351D01*
X259270Y309068D01*
X259367Y308814D01*
X259484Y308609D01*
X259591Y308434D01*
X259699Y308307D01*
X259786Y308209D01*
X259845Y308151D01*
X259855Y308141D01*
X259865Y308131D01*
X260060Y307995D01*
X260255Y307897D01*
X260459Y307819D01*
X260645Y307771D01*
X260811Y307741D01*
X260889Y307731D01*
X260947D01*
X260996Y307722D01*
X261064D01*
X261279Y307731D01*
X261484Y307771D01*
X261669Y307819D01*
X261825Y307868D01*
X261961Y307927D01*
X262069Y307966D01*
X262108Y307985D01*
X262137Y308005D01*
X262147Y308014D01*
X262157D01*
X262332Y308141D01*
X262478Y308288D01*
X262605Y308434D01*
X262712Y308590D01*
X262791Y308717D01*
X262839Y308834D01*
X262859Y308873D01*
X262878Y308902D01*
X262888Y308922D01*
Y308931D01*
X262966Y309165D01*
X263025Y309409D01*
X263064Y309653D01*
X263093Y309877D01*
X263103Y309975D01*
X263112Y310063D01*
Y310150D01*
X263122Y310219D01*
Y310277D01*
Y310316D01*
Y310345D01*
Y310355D01*
X263112Y310589D01*
X263093Y310814D01*
X263064Y311019D01*
X263025Y311204D01*
X262986Y311360D01*
X262976Y311428D01*
X262956Y311477D01*
X262947Y311526D01*
X262937Y311555D01*
X262927Y311574D01*
Y311584D01*
X262839Y311799D01*
X262732Y311994D01*
X262615Y312150D01*
X262508Y312286D01*
X262400Y312394D01*
X262313Y312472D01*
X262254Y312521D01*
X262244Y312540D01*
X262235D01*
X262040Y312657D01*
X261835Y312745D01*
X261630Y312813D01*
X261435Y312852D01*
X261259Y312881D01*
X261191Y312891D01*
X261123D01*
X261074Y312901D01*
X261006D01*
X260772Y312891D01*
X260567Y312852D01*
X260381Y312803D01*
X260235Y312745D01*
X260108Y312677D01*
X260021Y312628D01*
X259962Y312589D01*
X259942Y312579D01*
X259786Y312442D01*
X259660Y312286D01*
X259543Y312111D01*
X259455Y311945D01*
X259387Y311799D01*
X259357Y311730D01*
X259328Y311672D01*
X259308Y311623D01*
X259299Y311584D01*
X259289Y311565D01*
Y311555D01*
X258450Y311750D01*
X258567Y312062D01*
X258636Y312208D01*
X258704Y312335D01*
X258782Y312462D01*
X258860Y312579D01*
X258928Y312677D01*
X259006Y312774D01*
X259074Y312852D01*
X259143Y312920D01*
X259211Y312989D01*
X259260Y313037D01*
X259308Y313076D01*
X259338Y313106D01*
X259357Y313116D01*
X259367Y313125D01*
X259494Y313213D01*
X259621Y313291D01*
X259757Y313359D01*
X259894Y313418D01*
X260167Y313506D01*
X260420Y313564D01*
X260537Y313584D01*
X260645Y313594D01*
X260742Y313603D01*
X260820Y313613D01*
X260889Y313623D01*
X260986D01*
X261298Y313603D01*
D02*
G37*
G36*
X257885Y309360D02*
Y308639D01*
X255105D01*
Y307107D01*
X254315D01*
Y308639D01*
X253447D01*
Y309360D01*
X254315D01*
Y313506D01*
X254958D01*
X257885Y309360D01*
D02*
G37*
G36*
X343986Y269990D02*
X344298Y269951D01*
X344591Y269893D01*
X344727Y269863D01*
X344844Y269834D01*
X344961Y269805D01*
X345059Y269776D01*
X345147Y269746D01*
X345225Y269717D01*
X345283Y269698D01*
X345322Y269678D01*
X345352Y269668D01*
X345361D01*
X345644Y269532D01*
X345888Y269366D01*
X346103Y269210D01*
X346268Y269044D01*
X346405Y268908D01*
X346502Y268791D01*
X346532Y268742D01*
X346561Y268713D01*
X346571Y268693D01*
X346581Y268683D01*
X346659Y268556D01*
X346717Y268420D01*
X346824Y268147D01*
X346893Y267864D01*
X346951Y267591D01*
X346961Y267474D01*
X346980Y267357D01*
X346990Y267259D01*
Y267171D01*
X347000Y267093D01*
Y266996D01*
X346990Y266811D01*
X346980Y266635D01*
X346912Y266313D01*
X346873Y266167D01*
X346824Y266021D01*
X346776Y265894D01*
X346727Y265777D01*
X346678Y265669D01*
X346629Y265582D01*
X346581Y265504D01*
X346541Y265435D01*
X346502Y265377D01*
X346473Y265338D01*
X346464Y265318D01*
X346454Y265308D01*
X346346Y265182D01*
X346229Y265065D01*
X345976Y264870D01*
X345712Y264694D01*
X345449Y264567D01*
X345332Y264509D01*
X345225Y264470D01*
X345117Y264431D01*
X345039Y264392D01*
X344961Y264372D01*
X344913Y264353D01*
X344874Y264343D01*
X344864D01*
X344649Y265191D01*
X344932Y265270D01*
X345186Y265367D01*
X345391Y265484D01*
X345566Y265591D01*
X345693Y265699D01*
X345790Y265786D01*
X345849Y265845D01*
X345859Y265855D01*
X345868Y265865D01*
X346005Y266060D01*
X346103Y266255D01*
X346181Y266460D01*
X346229Y266645D01*
X346259Y266811D01*
X346268Y266889D01*
Y266947D01*
X346278Y266996D01*
Y267064D01*
X346268Y267279D01*
X346229Y267484D01*
X346181Y267669D01*
X346132Y267825D01*
X346073Y267962D01*
X346034Y268069D01*
X346015Y268108D01*
X345995Y268137D01*
X345985Y268147D01*
Y268157D01*
X345859Y268332D01*
X345712Y268479D01*
X345566Y268605D01*
X345410Y268713D01*
X345283Y268791D01*
X345166Y268839D01*
X345127Y268859D01*
X345098Y268878D01*
X345079Y268888D01*
X345069D01*
X344835Y268966D01*
X344591Y269025D01*
X344347Y269064D01*
X344123Y269093D01*
X344025Y269103D01*
X343937Y269112D01*
X343849D01*
X343781Y269122D01*
X343723D01*
X343684D01*
X343654D01*
X343645D01*
X343411Y269112D01*
X343186Y269093D01*
X342981Y269064D01*
X342796Y269025D01*
X342640Y268986D01*
X342572Y268976D01*
X342523Y268956D01*
X342474Y268947D01*
X342445Y268937D01*
X342425Y268927D01*
X342416D01*
X342201Y268839D01*
X342006Y268732D01*
X341850Y268615D01*
X341713Y268508D01*
X341606Y268400D01*
X341528Y268313D01*
X341479Y268254D01*
X341460Y268244D01*
Y268235D01*
X341343Y268039D01*
X341255Y267835D01*
X341187Y267630D01*
X341148Y267435D01*
X341119Y267259D01*
X341109Y267191D01*
Y267123D01*
X341099Y267074D01*
Y267006D01*
X341109Y266772D01*
X341148Y266567D01*
X341197Y266381D01*
X341255Y266235D01*
X341323Y266108D01*
X341372Y266021D01*
X341411Y265962D01*
X341421Y265942D01*
X341557Y265786D01*
X341713Y265660D01*
X341889Y265543D01*
X342055Y265455D01*
X342201Y265387D01*
X342269Y265357D01*
X342328Y265328D01*
X342377Y265308D01*
X342416Y265299D01*
X342435Y265289D01*
X342445D01*
X342250Y264450D01*
X341938Y264567D01*
X341791Y264636D01*
X341665Y264704D01*
X341538Y264782D01*
X341421Y264860D01*
X341323Y264928D01*
X341226Y265006D01*
X341148Y265075D01*
X341079Y265143D01*
X341011Y265211D01*
X340962Y265260D01*
X340923Y265308D01*
X340894Y265338D01*
X340884Y265357D01*
X340875Y265367D01*
X340787Y265494D01*
X340709Y265621D01*
X340641Y265757D01*
X340582Y265894D01*
X340494Y266167D01*
X340436Y266420D01*
X340416Y266537D01*
X340406Y266645D01*
X340397Y266742D01*
X340387Y266820D01*
X340377Y266889D01*
Y266986D01*
X340397Y267298D01*
X340436Y267591D01*
X340504Y267854D01*
X340533Y267971D01*
X340572Y268079D01*
X340611Y268176D01*
X340641Y268274D01*
X340680Y268352D01*
X340709Y268410D01*
X340728Y268469D01*
X340748Y268508D01*
X340767Y268527D01*
Y268537D01*
X340923Y268781D01*
X341109Y269005D01*
X341294Y269191D01*
X341479Y269337D01*
X341645Y269464D01*
X341713Y269512D01*
X341772Y269551D01*
X341830Y269581D01*
X341870Y269600D01*
X341889Y269620D01*
X341899D01*
X342182Y269746D01*
X342484Y269844D01*
X342777Y269902D01*
X343050Y269951D01*
X343176Y269971D01*
X343284Y269981D01*
X343391Y269990D01*
X343479D01*
X343547Y270000D01*
X343596D01*
X343635D01*
X343645D01*
X343986Y269990D01*
D02*
G37*
G36*
X342796Y263611D02*
X342962Y263602D01*
X343108Y263572D01*
X343255Y263533D01*
X343391Y263494D01*
X343518Y263446D01*
X343635Y263397D01*
X343732Y263348D01*
X343830Y263299D01*
X343908Y263251D01*
X343976Y263202D01*
X344035Y263163D01*
X344084Y263124D01*
X344113Y263095D01*
X344132Y263085D01*
X344142Y263075D01*
X344240Y262968D01*
X344327Y262860D01*
X344406Y262743D01*
X344474Y262636D01*
X344532Y262519D01*
X344581Y262412D01*
X344649Y262197D01*
X344688Y262012D01*
X344698Y261934D01*
X344708Y261866D01*
X344718Y261807D01*
Y261729D01*
X344708Y261553D01*
X344679Y261388D01*
X344649Y261241D01*
X344600Y261115D01*
X344562Y261007D01*
X344532Y260919D01*
X344503Y260871D01*
X344493Y260851D01*
X344396Y260705D01*
X344298Y260578D01*
X344191Y260461D01*
X344093Y260373D01*
X344015Y260295D01*
X343937Y260246D01*
X343898Y260207D01*
X343879Y260198D01*
X343947D01*
X343996D01*
X344025D01*
X344035D01*
X344220D01*
X344396Y260217D01*
X344552Y260237D01*
X344698Y260256D01*
X344825Y260276D01*
X344922Y260295D01*
X344952Y260305D01*
X344981D01*
X344991Y260315D01*
X345000D01*
X345166Y260364D01*
X345312Y260412D01*
X345439Y260461D01*
X345547Y260500D01*
X345634Y260549D01*
X345703Y260578D01*
X345742Y260597D01*
X345751Y260607D01*
X345849Y260676D01*
X345937Y260754D01*
X346015Y260822D01*
X346073Y260900D01*
X346122Y260958D01*
X346161Y261007D01*
X346181Y261046D01*
X346190Y261056D01*
X346249Y261163D01*
X346288Y261271D01*
X346317Y261378D01*
X346337Y261475D01*
X346346Y261563D01*
X346356Y261631D01*
Y261690D01*
X346346Y261846D01*
X346317Y261983D01*
X346278Y262100D01*
X346239Y262197D01*
X346200Y262285D01*
X346161Y262343D01*
X346132Y262383D01*
X346122Y262392D01*
X346025Y262490D01*
X345898Y262568D01*
X345771Y262626D01*
X345644Y262675D01*
X345537Y262714D01*
X345439Y262734D01*
X345400Y262743D01*
X345371Y262753D01*
X345361D01*
X345352D01*
X345410Y263504D01*
X345683Y263455D01*
X345917Y263377D01*
X346122Y263290D01*
X346288Y263192D01*
X346415Y263095D01*
X346512Y263016D01*
X346571Y262958D01*
X346581Y262948D01*
X346590Y262938D01*
X346727Y262743D01*
X346824Y262548D01*
X346902Y262343D01*
X346951Y262148D01*
X346980Y261973D01*
X346990Y261895D01*
Y261836D01*
X347000Y261778D01*
Y261709D01*
X346980Y261456D01*
X346941Y261212D01*
X346883Y261007D01*
X346815Y260822D01*
X346746Y260676D01*
X346717Y260617D01*
X346688Y260568D01*
X346659Y260520D01*
X346649Y260490D01*
X346629Y260480D01*
Y260471D01*
X346473Y260285D01*
X346298Y260129D01*
X346112Y259993D01*
X345927Y259876D01*
X345771Y259788D01*
X345703Y259759D01*
X345634Y259729D01*
X345586Y259710D01*
X345547Y259690D01*
X345527Y259681D01*
X345517D01*
X345371Y259632D01*
X345225Y259593D01*
X344903Y259525D01*
X344571Y259476D01*
X344259Y259437D01*
X344113Y259427D01*
X343986Y259417D01*
X343859D01*
X343762Y259408D01*
X343674D01*
X343615D01*
X343567D01*
X343557D01*
X343342D01*
X343138Y259417D01*
X342952Y259437D01*
X342777Y259447D01*
X342621Y259466D01*
X342474Y259495D01*
X342338Y259515D01*
X342221Y259544D01*
X342113Y259573D01*
X342016Y259593D01*
X341938Y259612D01*
X341879Y259642D01*
X341830Y259651D01*
X341791Y259671D01*
X341772Y259681D01*
X341762D01*
X341538Y259788D01*
X341343Y259915D01*
X341187Y260051D01*
X341040Y260178D01*
X340933Y260295D01*
X340855Y260383D01*
X340836Y260422D01*
X340816Y260451D01*
X340797Y260461D01*
Y260471D01*
X340680Y260666D01*
X340602Y260871D01*
X340543Y261056D01*
X340494Y261231D01*
X340475Y261388D01*
X340465Y261456D01*
Y261505D01*
X340455Y261553D01*
Y261612D01*
X340465Y261768D01*
X340485Y261924D01*
X340514Y262070D01*
X340543Y262207D01*
X340641Y262451D01*
X340699Y262558D01*
X340748Y262656D01*
X340806Y262753D01*
X340865Y262831D01*
X340914Y262899D01*
X340953Y262948D01*
X340992Y262997D01*
X341021Y263026D01*
X341040Y263046D01*
X341050Y263055D01*
X341167Y263153D01*
X341284Y263241D01*
X341411Y263319D01*
X341548Y263377D01*
X341674Y263436D01*
X341811Y263485D01*
X342055Y263553D01*
X342172Y263572D01*
X342279Y263592D01*
X342377Y263602D01*
X342455Y263611D01*
X342523Y263621D01*
X342581D01*
X342611D01*
X342621D01*
X342796Y263611D01*
D02*
G37*
G36*
X343986Y232990D02*
X344298Y232951D01*
X344591Y232893D01*
X344727Y232863D01*
X344844Y232834D01*
X344961Y232805D01*
X345059Y232776D01*
X345147Y232746D01*
X345225Y232717D01*
X345283Y232698D01*
X345322Y232678D01*
X345352Y232668D01*
X345361D01*
X345644Y232532D01*
X345888Y232366D01*
X346103Y232210D01*
X346268Y232044D01*
X346405Y231908D01*
X346502Y231791D01*
X346532Y231742D01*
X346561Y231712D01*
X346571Y231693D01*
X346581Y231683D01*
X346659Y231556D01*
X346717Y231420D01*
X346824Y231147D01*
X346893Y230864D01*
X346951Y230591D01*
X346961Y230474D01*
X346980Y230357D01*
X346990Y230259D01*
Y230171D01*
X347000Y230093D01*
Y229996D01*
X346990Y229811D01*
X346980Y229635D01*
X346912Y229313D01*
X346873Y229167D01*
X346824Y229021D01*
X346776Y228894D01*
X346727Y228777D01*
X346678Y228669D01*
X346629Y228582D01*
X346581Y228504D01*
X346541Y228435D01*
X346502Y228377D01*
X346473Y228338D01*
X346464Y228318D01*
X346454Y228309D01*
X346346Y228182D01*
X346229Y228065D01*
X345976Y227870D01*
X345713Y227694D01*
X345449Y227567D01*
X345332Y227509D01*
X345225Y227470D01*
X345117Y227431D01*
X345039Y227392D01*
X344961Y227372D01*
X344913Y227353D01*
X344874Y227343D01*
X344864D01*
X344649Y228192D01*
X344932Y228270D01*
X345186Y228367D01*
X345391Y228484D01*
X345566Y228591D01*
X345693Y228699D01*
X345790Y228786D01*
X345849Y228845D01*
X345859Y228855D01*
X345868Y228864D01*
X346005Y229060D01*
X346103Y229255D01*
X346181Y229459D01*
X346229Y229645D01*
X346259Y229811D01*
X346268Y229889D01*
Y229947D01*
X346278Y229996D01*
Y230064D01*
X346268Y230279D01*
X346229Y230484D01*
X346181Y230669D01*
X346132Y230825D01*
X346073Y230961D01*
X346034Y231069D01*
X346015Y231108D01*
X345995Y231137D01*
X345986Y231147D01*
Y231157D01*
X345859Y231332D01*
X345713Y231478D01*
X345566Y231605D01*
X345410Y231712D01*
X345283Y231791D01*
X345166Y231839D01*
X345127Y231859D01*
X345098Y231878D01*
X345079Y231888D01*
X345069D01*
X344835Y231966D01*
X344591Y232025D01*
X344347Y232064D01*
X344123Y232093D01*
X344025Y232103D01*
X343937Y232112D01*
X343849D01*
X343781Y232122D01*
X343723D01*
X343684D01*
X343655D01*
X343645D01*
X343411Y232112D01*
X343186Y232093D01*
X342981Y232064D01*
X342796Y232025D01*
X342640Y231986D01*
X342572Y231976D01*
X342523Y231956D01*
X342474Y231947D01*
X342445Y231937D01*
X342425Y231927D01*
X342416D01*
X342201Y231839D01*
X342006Y231732D01*
X341850Y231615D01*
X341713Y231508D01*
X341606Y231400D01*
X341528Y231313D01*
X341479Y231254D01*
X341460Y231244D01*
Y231235D01*
X341343Y231040D01*
X341255Y230835D01*
X341187Y230630D01*
X341148Y230435D01*
X341119Y230259D01*
X341109Y230191D01*
Y230123D01*
X341099Y230074D01*
Y230006D01*
X341109Y229771D01*
X341148Y229567D01*
X341197Y229381D01*
X341255Y229235D01*
X341323Y229108D01*
X341372Y229021D01*
X341411Y228962D01*
X341421Y228943D01*
X341557Y228786D01*
X341713Y228660D01*
X341889Y228543D01*
X342055Y228455D01*
X342201Y228386D01*
X342269Y228357D01*
X342328Y228328D01*
X342377Y228309D01*
X342416Y228299D01*
X342435Y228289D01*
X342445D01*
X342250Y227450D01*
X341938Y227567D01*
X341791Y227635D01*
X341665Y227704D01*
X341538Y227782D01*
X341421Y227860D01*
X341323Y227928D01*
X341226Y228006D01*
X341148Y228074D01*
X341079Y228143D01*
X341011Y228211D01*
X340962Y228260D01*
X340923Y228309D01*
X340894Y228338D01*
X340884Y228357D01*
X340875Y228367D01*
X340787Y228494D01*
X340709Y228621D01*
X340641Y228757D01*
X340582Y228894D01*
X340494Y229167D01*
X340436Y229420D01*
X340416Y229538D01*
X340406Y229645D01*
X340397Y229742D01*
X340387Y229820D01*
X340377Y229889D01*
Y229986D01*
X340397Y230298D01*
X340436Y230591D01*
X340504Y230854D01*
X340533Y230971D01*
X340572Y231078D01*
X340611Y231176D01*
X340641Y231274D01*
X340680Y231352D01*
X340709Y231410D01*
X340728Y231469D01*
X340748Y231508D01*
X340767Y231527D01*
Y231537D01*
X340923Y231781D01*
X341109Y232005D01*
X341294Y232190D01*
X341479Y232337D01*
X341645Y232463D01*
X341713Y232512D01*
X341772Y232551D01*
X341830Y232581D01*
X341870Y232600D01*
X341889Y232620D01*
X341899D01*
X342182Y232746D01*
X342484Y232844D01*
X342777Y232903D01*
X343050Y232951D01*
X343176Y232971D01*
X343284Y232980D01*
X343391Y232990D01*
X343479D01*
X343547Y233000D01*
X343596D01*
X343635D01*
X343645D01*
X343986Y232990D01*
D02*
G37*
G36*
X341314Y223432D02*
X341587Y223656D01*
X341870Y223861D01*
X342152Y224056D01*
X342416Y224231D01*
X342542Y224300D01*
X342650Y224368D01*
X342747Y224427D01*
X342835Y224475D01*
X342903Y224514D01*
X342952Y224544D01*
X342991Y224563D01*
X343001Y224573D01*
X343372Y224758D01*
X343742Y224924D01*
X344093Y225061D01*
X344259Y225119D01*
X344406Y225178D01*
X344552Y225226D01*
X344679Y225265D01*
X344786Y225304D01*
X344883Y225334D01*
X344961Y225353D01*
X345020Y225373D01*
X345059Y225382D01*
X345069D01*
X345459Y225480D01*
X345634Y225519D01*
X345810Y225548D01*
X345966Y225578D01*
X346112Y225597D01*
X346259Y225616D01*
X346385Y225636D01*
X346493Y225646D01*
X346600Y225655D01*
X346688Y225665D01*
X346756D01*
X346815Y225675D01*
X346854D01*
X346883D01*
X346893D01*
Y224865D01*
X346541Y224836D01*
X346210Y224797D01*
X345917Y224748D01*
X345781Y224719D01*
X345654Y224700D01*
X345547Y224670D01*
X345439Y224651D01*
X345352Y224631D01*
X345274Y224612D01*
X345215Y224592D01*
X345176Y224583D01*
X345147Y224573D01*
X345137D01*
X344708Y224436D01*
X344308Y224290D01*
X344113Y224212D01*
X343928Y224134D01*
X343752Y224056D01*
X343596Y223988D01*
X343450Y223919D01*
X343313Y223851D01*
X343196Y223793D01*
X343098Y223744D01*
X343021Y223705D01*
X342962Y223675D01*
X342923Y223656D01*
X342913Y223646D01*
X342718Y223529D01*
X342523Y223422D01*
X342347Y223305D01*
X342182Y223198D01*
X342026Y223100D01*
X341889Y222993D01*
X341753Y222895D01*
X341636Y222808D01*
X341538Y222729D01*
X341440Y222651D01*
X341362Y222583D01*
X341294Y222534D01*
X341245Y222486D01*
X341206Y222456D01*
X341187Y222437D01*
X341177Y222427D01*
X340563D01*
Y226572D01*
X341314D01*
Y223432D01*
D02*
G37*
G36*
X357689Y185990D02*
X357865Y185980D01*
X358187Y185912D01*
X358333Y185873D01*
X358479Y185824D01*
X358606Y185776D01*
X358723Y185727D01*
X358830Y185678D01*
X358918Y185629D01*
X358996Y185581D01*
X359065Y185541D01*
X359123Y185502D01*
X359162Y185473D01*
X359182Y185464D01*
X359191Y185454D01*
X359318Y185346D01*
X359435Y185229D01*
X359630Y184976D01*
X359806Y184713D01*
X359933Y184449D01*
X359991Y184332D01*
X360030Y184225D01*
X360069Y184118D01*
X360108Y184039D01*
X360128Y183961D01*
X360147Y183913D01*
X360157Y183874D01*
Y183864D01*
X359309Y183649D01*
X359230Y183932D01*
X359133Y184186D01*
X359016Y184391D01*
X358909Y184566D01*
X358801Y184693D01*
X358713Y184790D01*
X358655Y184849D01*
X358645Y184859D01*
X358635Y184869D01*
X358440Y185005D01*
X358245Y185103D01*
X358041Y185181D01*
X357855Y185229D01*
X357689Y185259D01*
X357611Y185268D01*
X357553D01*
X357504Y185278D01*
X357436D01*
X357221Y185268D01*
X357016Y185229D01*
X356831Y185181D01*
X356675Y185132D01*
X356538Y185073D01*
X356431Y185034D01*
X356392Y185015D01*
X356363Y184995D01*
X356353Y184986D01*
X356343D01*
X356168Y184859D01*
X356021Y184713D01*
X355895Y184566D01*
X355787Y184410D01*
X355709Y184283D01*
X355661Y184166D01*
X355641Y184127D01*
X355622Y184098D01*
X355612Y184079D01*
Y184069D01*
X355534Y183835D01*
X355475Y183591D01*
X355436Y183347D01*
X355407Y183123D01*
X355397Y183025D01*
X355387Y182937D01*
Y182850D01*
X355378Y182781D01*
Y182723D01*
Y182684D01*
Y182654D01*
Y182645D01*
X355387Y182411D01*
X355407Y182186D01*
X355436Y181981D01*
X355475Y181796D01*
X355514Y181640D01*
X355524Y181572D01*
X355544Y181523D01*
X355553Y181474D01*
X355563Y181445D01*
X355573Y181425D01*
Y181416D01*
X355661Y181201D01*
X355768Y181006D01*
X355885Y180850D01*
X355992Y180714D01*
X356100Y180606D01*
X356187Y180528D01*
X356246Y180479D01*
X356256Y180460D01*
X356265D01*
X356460Y180343D01*
X356665Y180255D01*
X356870Y180187D01*
X357065Y180148D01*
X357241Y180119D01*
X357309Y180109D01*
X357377D01*
X357426Y180099D01*
X357494D01*
X357728Y180109D01*
X357933Y180148D01*
X358119Y180196D01*
X358265Y180255D01*
X358392Y180323D01*
X358479Y180372D01*
X358538Y180411D01*
X358557Y180421D01*
X358713Y180557D01*
X358840Y180714D01*
X358957Y180889D01*
X359045Y181055D01*
X359113Y181201D01*
X359143Y181269D01*
X359172Y181328D01*
X359191Y181377D01*
X359201Y181416D01*
X359211Y181435D01*
Y181445D01*
X360050Y181250D01*
X359933Y180938D01*
X359864Y180791D01*
X359796Y180665D01*
X359718Y180538D01*
X359640Y180421D01*
X359572Y180323D01*
X359494Y180226D01*
X359426Y180148D01*
X359357Y180079D01*
X359289Y180011D01*
X359240Y179963D01*
X359191Y179923D01*
X359162Y179894D01*
X359143Y179884D01*
X359133Y179875D01*
X359006Y179787D01*
X358879Y179709D01*
X358743Y179641D01*
X358606Y179582D01*
X358333Y179494D01*
X358079Y179436D01*
X357962Y179416D01*
X357855Y179407D01*
X357758Y179397D01*
X357680Y179387D01*
X357611Y179377D01*
X357514D01*
X357202Y179397D01*
X356909Y179436D01*
X356646Y179504D01*
X356529Y179533D01*
X356421Y179572D01*
X356324Y179611D01*
X356226Y179641D01*
X356148Y179680D01*
X356090Y179709D01*
X356031Y179728D01*
X355992Y179748D01*
X355973Y179767D01*
X355963D01*
X355719Y179923D01*
X355495Y180109D01*
X355309Y180294D01*
X355163Y180479D01*
X355036Y180645D01*
X354988Y180714D01*
X354949Y180772D01*
X354919Y180830D01*
X354900Y180870D01*
X354880Y180889D01*
Y180899D01*
X354753Y181182D01*
X354656Y181484D01*
X354598Y181777D01*
X354549Y182050D01*
X354529Y182176D01*
X354519Y182284D01*
X354510Y182391D01*
Y182479D01*
X354500Y182547D01*
Y182596D01*
Y182635D01*
Y182645D01*
X354510Y182986D01*
X354549Y183298D01*
X354607Y183591D01*
X354636Y183727D01*
X354666Y183844D01*
X354695Y183961D01*
X354724Y184059D01*
X354753Y184147D01*
X354783Y184225D01*
X354802Y184283D01*
X354822Y184322D01*
X354832Y184352D01*
Y184361D01*
X354968Y184644D01*
X355134Y184888D01*
X355290Y185103D01*
X355456Y185268D01*
X355592Y185405D01*
X355709Y185502D01*
X355758Y185532D01*
X355787Y185561D01*
X355807Y185571D01*
X355817Y185581D01*
X355943Y185659D01*
X356080Y185717D01*
X356353Y185824D01*
X356636Y185893D01*
X356909Y185951D01*
X357026Y185961D01*
X357143Y185980D01*
X357241Y185990D01*
X357328D01*
X357407Y186000D01*
X357504D01*
X357689Y185990D01*
D02*
G37*
G36*
X363122D02*
X363307Y185971D01*
X363473Y185932D01*
X363639Y185883D01*
X363785Y185824D01*
X363932Y185756D01*
X364058Y185688D01*
X364166Y185610D01*
X364273Y185541D01*
X364361Y185473D01*
X364439Y185405D01*
X364497Y185346D01*
X364546Y185298D01*
X364585Y185259D01*
X364605Y185239D01*
X364614Y185229D01*
X364702Y185112D01*
X364780Y184986D01*
X364849Y184859D01*
X364907Y184722D01*
X364995Y184478D01*
X365063Y184244D01*
X365083Y184137D01*
X365092Y184039D01*
X365102Y183952D01*
X365112Y183874D01*
X365122Y183815D01*
Y183766D01*
Y183737D01*
Y183727D01*
X365112Y183561D01*
X365092Y183396D01*
X365063Y183249D01*
X365034Y183103D01*
X364985Y182976D01*
X364936Y182850D01*
X364888Y182742D01*
X364829Y182635D01*
X364771Y182547D01*
X364722Y182469D01*
X364673Y182401D01*
X364624Y182342D01*
X364595Y182294D01*
X364566Y182264D01*
X364546Y182245D01*
X364536Y182235D01*
X364429Y182128D01*
X364312Y182040D01*
X364195Y181962D01*
X364068Y181894D01*
X363951Y181835D01*
X363834Y181796D01*
X363610Y181718D01*
X363512Y181699D01*
X363415Y181679D01*
X363337Y181669D01*
X363259Y181660D01*
X363200Y181650D01*
X363122D01*
X362888Y181669D01*
X362664Y181718D01*
X362459Y181777D01*
X362283Y181855D01*
X362127Y181933D01*
X362069Y181962D01*
X362010Y181991D01*
X361971Y182020D01*
X361942Y182040D01*
X361922Y182050D01*
X361913Y182059D01*
X362264Y180333D01*
X364819D01*
Y179582D01*
X361640D01*
X361015Y182869D01*
X361757Y182976D01*
X361825Y182879D01*
X361903Y182791D01*
X361981Y182713D01*
X362049Y182645D01*
X362118Y182596D01*
X362176Y182557D01*
X362215Y182537D01*
X362225Y182528D01*
X362342Y182469D01*
X362459Y182420D01*
X362576Y182391D01*
X362683Y182362D01*
X362781Y182352D01*
X362849Y182342D01*
X362917D01*
X363132Y182362D01*
X363327Y182401D01*
X363503Y182469D01*
X363639Y182537D01*
X363756Y182606D01*
X363834Y182674D01*
X363883Y182713D01*
X363902Y182733D01*
X364029Y182889D01*
X364127Y183064D01*
X364195Y183240D01*
X364234Y183405D01*
X364263Y183561D01*
X364273Y183630D01*
Y183688D01*
X364283Y183727D01*
Y183766D01*
Y183786D01*
Y183796D01*
X364263Y184049D01*
X364224Y184273D01*
X364156Y184469D01*
X364088Y184634D01*
X364019Y184761D01*
X363951Y184859D01*
X363912Y184917D01*
X363893Y184927D01*
Y184937D01*
X363815Y185015D01*
X363737Y185073D01*
X363581Y185181D01*
X363415Y185249D01*
X363268Y185307D01*
X363132Y185337D01*
X363025Y185346D01*
X362986Y185356D01*
X362927D01*
X362761Y185346D01*
X362605Y185307D01*
X362469Y185259D01*
X362352Y185210D01*
X362254Y185151D01*
X362186Y185112D01*
X362147Y185073D01*
X362127Y185064D01*
X362010Y184937D01*
X361922Y184790D01*
X361844Y184644D01*
X361796Y184498D01*
X361757Y184361D01*
X361727Y184254D01*
X361718Y184215D01*
X361708Y184186D01*
Y184166D01*
Y184156D01*
X360879Y184215D01*
X360898Y184361D01*
X360928Y184508D01*
X361006Y184761D01*
X361113Y184986D01*
X361220Y185171D01*
X361279Y185249D01*
X361327Y185317D01*
X361376Y185376D01*
X361415Y185424D01*
X361454Y185464D01*
X361483Y185493D01*
X361493Y185502D01*
X361503Y185512D01*
X361610Y185600D01*
X361727Y185668D01*
X361844Y185737D01*
X361961Y185795D01*
X362196Y185883D01*
X362420Y185941D01*
X362527Y185961D01*
X362625Y185971D01*
X362713Y185980D01*
X362781Y185990D01*
X362839Y186000D01*
X362927D01*
X363122Y185990D01*
D02*
G37*
G36*
X205189D02*
X205365Y185980D01*
X205687Y185912D01*
X205833Y185873D01*
X205979Y185824D01*
X206106Y185776D01*
X206223Y185727D01*
X206331Y185678D01*
X206418Y185629D01*
X206496Y185581D01*
X206565Y185541D01*
X206623Y185502D01*
X206662Y185473D01*
X206682Y185464D01*
X206691Y185454D01*
X206818Y185346D01*
X206935Y185229D01*
X207130Y184976D01*
X207306Y184713D01*
X207433Y184449D01*
X207491Y184332D01*
X207530Y184225D01*
X207569Y184118D01*
X207608Y184039D01*
X207628Y183961D01*
X207647Y183913D01*
X207657Y183874D01*
Y183864D01*
X206808Y183649D01*
X206730Y183932D01*
X206633Y184186D01*
X206516Y184391D01*
X206409Y184566D01*
X206301Y184693D01*
X206213Y184790D01*
X206155Y184849D01*
X206145Y184859D01*
X206136Y184869D01*
X205940Y185005D01*
X205745Y185103D01*
X205541Y185181D01*
X205355Y185229D01*
X205189Y185259D01*
X205111Y185268D01*
X205053D01*
X205004Y185278D01*
X204936D01*
X204721Y185268D01*
X204516Y185229D01*
X204331Y185181D01*
X204175Y185132D01*
X204039Y185073D01*
X203931Y185034D01*
X203892Y185015D01*
X203863Y184995D01*
X203853Y184986D01*
X203843D01*
X203668Y184859D01*
X203521Y184713D01*
X203395Y184566D01*
X203288Y184410D01*
X203209Y184283D01*
X203161Y184166D01*
X203141Y184127D01*
X203122Y184098D01*
X203112Y184079D01*
Y184069D01*
X203034Y183835D01*
X202975Y183591D01*
X202936Y183347D01*
X202907Y183123D01*
X202897Y183025D01*
X202888Y182937D01*
Y182850D01*
X202878Y182781D01*
Y182723D01*
Y182684D01*
Y182654D01*
Y182645D01*
X202888Y182411D01*
X202907Y182186D01*
X202936Y181981D01*
X202975Y181796D01*
X203014Y181640D01*
X203024Y181572D01*
X203044Y181523D01*
X203053Y181474D01*
X203063Y181445D01*
X203073Y181425D01*
Y181416D01*
X203161Y181201D01*
X203268Y181006D01*
X203385Y180850D01*
X203492Y180714D01*
X203600Y180606D01*
X203687Y180528D01*
X203746Y180479D01*
X203756Y180460D01*
X203765D01*
X203960Y180343D01*
X204165Y180255D01*
X204370Y180187D01*
X204565Y180148D01*
X204741Y180119D01*
X204809Y180109D01*
X204877D01*
X204926Y180099D01*
X204994D01*
X205228Y180109D01*
X205433Y180148D01*
X205619Y180196D01*
X205765Y180255D01*
X205892Y180323D01*
X205979Y180372D01*
X206038Y180411D01*
X206057Y180421D01*
X206213Y180557D01*
X206340Y180714D01*
X206457Y180889D01*
X206545Y181055D01*
X206613Y181201D01*
X206643Y181269D01*
X206672Y181328D01*
X206691Y181377D01*
X206701Y181416D01*
X206711Y181435D01*
Y181445D01*
X207550Y181250D01*
X207433Y180938D01*
X207365Y180791D01*
X207296Y180665D01*
X207218Y180538D01*
X207140Y180421D01*
X207072Y180323D01*
X206994Y180226D01*
X206926Y180148D01*
X206857Y180079D01*
X206789Y180011D01*
X206740Y179963D01*
X206691Y179923D01*
X206662Y179894D01*
X206643Y179884D01*
X206633Y179875D01*
X206506Y179787D01*
X206379Y179709D01*
X206243Y179641D01*
X206106Y179582D01*
X205833Y179494D01*
X205579Y179436D01*
X205462Y179416D01*
X205355Y179407D01*
X205258Y179397D01*
X205180Y179387D01*
X205111Y179377D01*
X205014D01*
X204702Y179397D01*
X204409Y179436D01*
X204146Y179504D01*
X204029Y179533D01*
X203921Y179572D01*
X203824Y179611D01*
X203726Y179641D01*
X203648Y179680D01*
X203590Y179709D01*
X203531Y179728D01*
X203492Y179748D01*
X203473Y179767D01*
X203463D01*
X203219Y179923D01*
X202995Y180109D01*
X202810Y180294D01*
X202663Y180479D01*
X202536Y180645D01*
X202488Y180714D01*
X202449Y180772D01*
X202419Y180830D01*
X202400Y180870D01*
X202380Y180889D01*
Y180899D01*
X202254Y181182D01*
X202156Y181484D01*
X202097Y181777D01*
X202049Y182050D01*
X202029Y182176D01*
X202020Y182284D01*
X202010Y182391D01*
Y182479D01*
X202000Y182547D01*
Y182596D01*
Y182635D01*
Y182645D01*
X202010Y182986D01*
X202049Y183298D01*
X202107Y183591D01*
X202136Y183727D01*
X202166Y183844D01*
X202195Y183961D01*
X202224Y184059D01*
X202254Y184147D01*
X202283Y184225D01*
X202302Y184283D01*
X202322Y184322D01*
X202332Y184352D01*
Y184361D01*
X202468Y184644D01*
X202634Y184888D01*
X202790Y185103D01*
X202956Y185268D01*
X203092Y185405D01*
X203209Y185502D01*
X203258Y185532D01*
X203288Y185561D01*
X203307Y185571D01*
X203317Y185581D01*
X203444Y185659D01*
X203580Y185717D01*
X203853Y185824D01*
X204136Y185893D01*
X204409Y185951D01*
X204526Y185961D01*
X204643Y185980D01*
X204741Y185990D01*
X204828D01*
X204907Y186000D01*
X205004D01*
X205189Y185990D01*
D02*
G37*
G36*
X211344Y179455D02*
X210827D01*
X210739Y179611D01*
X210632Y179767D01*
X210515Y179914D01*
X210398Y180050D01*
X210291Y180158D01*
X210203Y180245D01*
X210144Y180304D01*
X210135Y180314D01*
X210125Y180323D01*
X209939Y180479D01*
X209744Y180626D01*
X209549Y180753D01*
X209374Y180860D01*
X209218Y180948D01*
X209149Y180977D01*
X209091Y181006D01*
X209052Y181035D01*
X209013Y181055D01*
X208993Y181065D01*
X208984D01*
Y181835D01*
X209120Y181777D01*
X209266Y181708D01*
X209403Y181650D01*
X209530Y181582D01*
X209637Y181523D01*
X209725Y181474D01*
X209783Y181435D01*
X209793Y181425D01*
X209803D01*
X209969Y181328D01*
X210115Y181221D01*
X210242Y181133D01*
X210349Y181045D01*
X210437Y180977D01*
X210505Y180928D01*
X210544Y180889D01*
X210554Y180879D01*
Y185893D01*
X211344D01*
Y179455D01*
D02*
G37*
G36*
X160180Y348613D02*
X160258Y348603D01*
X160355Y348593D01*
X160462Y348584D01*
X160579Y348564D01*
X160833Y348506D01*
X161106Y348418D01*
X161243Y348359D01*
X161379Y348291D01*
X161506Y348213D01*
X161633Y348125D01*
X161643Y348116D01*
X161662Y348106D01*
X161691Y348077D01*
X161740Y348037D01*
X161789Y347989D01*
X161857Y347920D01*
X161926Y347852D01*
X161994Y347774D01*
X162072Y347677D01*
X162140Y347579D01*
X162218Y347462D01*
X162296Y347335D01*
X162364Y347208D01*
X162433Y347062D01*
X162550Y346750D01*
X161711Y346555D01*
Y346565D01*
X161701Y346584D01*
X161691Y346623D01*
X161672Y346672D01*
X161643Y346730D01*
X161613Y346799D01*
X161545Y346945D01*
X161457Y347111D01*
X161340Y347286D01*
X161213Y347443D01*
X161057Y347579D01*
X161038Y347589D01*
X160979Y347628D01*
X160892Y347677D01*
X160765Y347745D01*
X160619Y347803D01*
X160433Y347852D01*
X160228Y347891D01*
X159994Y347901D01*
X159926D01*
X159877Y347891D01*
X159809D01*
X159741Y347881D01*
X159565Y347852D01*
X159370Y347813D01*
X159165Y347745D01*
X158960Y347657D01*
X158765Y347540D01*
X158756D01*
X158746Y347520D01*
X158687Y347472D01*
X158600Y347394D01*
X158492Y347286D01*
X158385Y347150D01*
X158268Y346994D01*
X158161Y346799D01*
X158073Y346584D01*
Y346574D01*
X158063Y346555D01*
X158053Y346526D01*
X158044Y346477D01*
X158024Y346428D01*
X158014Y346360D01*
X157975Y346204D01*
X157936Y346018D01*
X157907Y345814D01*
X157887Y345589D01*
X157878Y345355D01*
Y345345D01*
Y345316D01*
Y345277D01*
Y345219D01*
X157887Y345150D01*
Y345063D01*
X157897Y344975D01*
X157907Y344877D01*
X157936Y344653D01*
X157975Y344409D01*
X158034Y344165D01*
X158112Y343931D01*
Y343922D01*
X158122Y343902D01*
X158141Y343873D01*
X158161Y343834D01*
X158209Y343717D01*
X158287Y343590D01*
X158395Y343434D01*
X158521Y343288D01*
X158668Y343141D01*
X158843Y343014D01*
X158853D01*
X158863Y343005D01*
X158892Y342985D01*
X158931Y342966D01*
X159038Y342927D01*
X159175Y342868D01*
X159331Y342819D01*
X159516Y342771D01*
X159721Y342732D01*
X159936Y342722D01*
X160004D01*
X160053Y342732D01*
X160111D01*
X160189Y342741D01*
X160355Y342771D01*
X160541Y342819D01*
X160745Y342897D01*
X160940Y342995D01*
X161136Y343131D01*
X161145Y343141D01*
X161155Y343151D01*
X161213Y343209D01*
X161301Y343307D01*
X161409Y343434D01*
X161516Y343609D01*
X161633Y343814D01*
X161730Y344068D01*
X161808Y344351D01*
X162657Y344136D01*
Y344126D01*
X162647Y344087D01*
X162628Y344039D01*
X162608Y343960D01*
X162569Y343882D01*
X162530Y343775D01*
X162491Y343668D01*
X162433Y343551D01*
X162306Y343288D01*
X162130Y343024D01*
X161935Y342771D01*
X161818Y342654D01*
X161691Y342546D01*
X161682Y342536D01*
X161662Y342527D01*
X161623Y342497D01*
X161565Y342458D01*
X161496Y342419D01*
X161418Y342371D01*
X161331Y342322D01*
X161223Y342273D01*
X161106Y342224D01*
X160979Y342176D01*
X160833Y342127D01*
X160687Y342088D01*
X160365Y342020D01*
X160189Y342010D01*
X160004Y342000D01*
X159907D01*
X159829Y342010D01*
X159741D01*
X159643Y342020D01*
X159526Y342039D01*
X159409Y342049D01*
X159136Y342107D01*
X158853Y342176D01*
X158580Y342283D01*
X158443Y342341D01*
X158317Y342419D01*
X158307Y342429D01*
X158287Y342439D01*
X158258Y342468D01*
X158209Y342497D01*
X158092Y342595D01*
X157956Y342732D01*
X157790Y342897D01*
X157634Y343112D01*
X157468Y343356D01*
X157332Y343639D01*
Y343648D01*
X157322Y343678D01*
X157302Y343717D01*
X157283Y343775D01*
X157254Y343853D01*
X157224Y343941D01*
X157195Y344039D01*
X157166Y344156D01*
X157136Y344273D01*
X157107Y344409D01*
X157049Y344702D01*
X157010Y345014D01*
X157000Y345355D01*
Y345365D01*
Y345404D01*
Y345453D01*
X157010Y345521D01*
Y345609D01*
X157020Y345716D01*
X157029Y345823D01*
X157049Y345950D01*
X157098Y346223D01*
X157156Y346516D01*
X157254Y346818D01*
X157380Y347101D01*
Y347111D01*
X157400Y347130D01*
X157419Y347169D01*
X157449Y347228D01*
X157488Y347286D01*
X157536Y347355D01*
X157663Y347520D01*
X157809Y347706D01*
X157995Y347891D01*
X158219Y348077D01*
X158463Y348233D01*
X158473D01*
X158492Y348252D01*
X158531Y348272D01*
X158590Y348291D01*
X158648Y348320D01*
X158726Y348359D01*
X158824Y348389D01*
X158921Y348428D01*
X159029Y348467D01*
X159146Y348496D01*
X159409Y348564D01*
X159702Y348603D01*
X160014Y348623D01*
X160111D01*
X160180Y348613D01*
D02*
G37*
G36*
X165573Y348535D02*
X165700Y348515D01*
X165847Y348486D01*
X166012Y348447D01*
X166178Y348389D01*
X166344Y348311D01*
X166354D01*
X166363Y348301D01*
X166422Y348272D01*
X166500Y348223D01*
X166597Y348154D01*
X166705Y348067D01*
X166822Y347960D01*
X166929Y347833D01*
X167027Y347696D01*
X167036Y347677D01*
X167066Y347628D01*
X167105Y347550D01*
X167144Y347452D01*
X167183Y347326D01*
X167222Y347189D01*
X167251Y347043D01*
X167261Y346877D01*
Y346857D01*
Y346809D01*
X167251Y346730D01*
X167232Y346633D01*
X167202Y346516D01*
X167163Y346389D01*
X167114Y346253D01*
X167036Y346126D01*
X167027Y346106D01*
X166997Y346067D01*
X166939Y346009D01*
X166871Y345931D01*
X166773Y345843D01*
X166666Y345755D01*
X166529Y345658D01*
X166373Y345580D01*
X166383D01*
X166402Y345570D01*
X166432D01*
X166471Y345550D01*
X166568Y345521D01*
X166695Y345462D01*
X166832Y345394D01*
X166978Y345297D01*
X167124Y345180D01*
X167251Y345033D01*
X167261Y345014D01*
X167300Y344955D01*
X167348Y344868D01*
X167417Y344751D01*
X167475Y344604D01*
X167524Y344429D01*
X167563Y344224D01*
X167573Y343999D01*
Y343990D01*
Y343960D01*
Y343922D01*
X167563Y343863D01*
X167553Y343785D01*
X167544Y343707D01*
X167524Y343609D01*
X167495Y343512D01*
X167427Y343288D01*
X167378Y343161D01*
X167309Y343044D01*
X167241Y342927D01*
X167163Y342810D01*
X167066Y342692D01*
X166958Y342575D01*
X166949Y342566D01*
X166929Y342546D01*
X166900Y342527D01*
X166851Y342488D01*
X166793Y342439D01*
X166715Y342390D01*
X166627Y342341D01*
X166539Y342293D01*
X166432Y342234D01*
X166315Y342185D01*
X166188Y342137D01*
X166051Y342088D01*
X165905Y342049D01*
X165749Y342029D01*
X165583Y342010D01*
X165417Y342000D01*
X165339D01*
X165281Y342010D01*
X165203Y342020D01*
X165125Y342029D01*
X165027Y342039D01*
X164930Y342058D01*
X164705Y342117D01*
X164471Y342215D01*
X164354Y342263D01*
X164247Y342332D01*
X164130Y342410D01*
X164023Y342497D01*
X164013Y342507D01*
X164003Y342517D01*
X163974Y342546D01*
X163935Y342585D01*
X163896Y342644D01*
X163847Y342702D01*
X163789Y342771D01*
X163740Y342849D01*
X163623Y343044D01*
X163525Y343268D01*
X163437Y343522D01*
X163408Y343658D01*
X163389Y343804D01*
X164179Y343912D01*
Y343902D01*
X164188Y343882D01*
Y343843D01*
X164208Y343804D01*
X164237Y343687D01*
X164286Y343541D01*
X164344Y343385D01*
X164422Y343219D01*
X164520Y343073D01*
X164627Y342946D01*
X164647Y342936D01*
X164686Y342897D01*
X164754Y342858D01*
X164852Y342800D01*
X164959Y342751D01*
X165096Y342702D01*
X165252Y342663D01*
X165417Y342654D01*
X165476D01*
X165515Y342663D01*
X165612Y342673D01*
X165739Y342702D01*
X165895Y342751D01*
X166051Y342810D01*
X166207Y342907D01*
X166354Y343034D01*
X166373Y343053D01*
X166412Y343102D01*
X166471Y343180D01*
X166549Y343297D01*
X166617Y343434D01*
X166675Y343600D01*
X166715Y343785D01*
X166734Y343990D01*
Y343999D01*
Y344009D01*
Y344039D01*
X166724Y344077D01*
X166715Y344175D01*
X166685Y344302D01*
X166646Y344438D01*
X166578Y344594D01*
X166490Y344741D01*
X166373Y344877D01*
X166354Y344897D01*
X166315Y344936D01*
X166237Y344985D01*
X166129Y345053D01*
X166003Y345121D01*
X165847Y345170D01*
X165681Y345209D01*
X165486Y345228D01*
X165398D01*
X165329Y345219D01*
X165252Y345209D01*
X165154Y345199D01*
X165047Y345180D01*
X164930Y345150D01*
X165017Y345843D01*
X165066D01*
X165105Y345833D01*
X165232D01*
X165320Y345843D01*
X165447Y345862D01*
X165583Y345892D01*
X165729Y345941D01*
X165886Y345999D01*
X166042Y346087D01*
X166061Y346096D01*
X166110Y346135D01*
X166168Y346204D01*
X166246Y346292D01*
X166324Y346399D01*
X166383Y346535D01*
X166432Y346701D01*
X166451Y346896D01*
Y346906D01*
Y346916D01*
Y346965D01*
X166432Y347043D01*
X166412Y347150D01*
X166383Y347257D01*
X166324Y347374D01*
X166256Y347501D01*
X166159Y347608D01*
X166149Y347618D01*
X166110Y347657D01*
X166042Y347706D01*
X165954Y347755D01*
X165847Y347813D01*
X165720Y347852D01*
X165573Y347891D01*
X165408Y347901D01*
X165329D01*
X165242Y347881D01*
X165144Y347862D01*
X165017Y347833D01*
X164891Y347774D01*
X164764Y347706D01*
X164637Y347608D01*
X164627Y347599D01*
X164588Y347560D01*
X164540Y347491D01*
X164481Y347394D01*
X164413Y347277D01*
X164354Y347130D01*
X164296Y346955D01*
X164257Y346750D01*
X163467Y346887D01*
Y346896D01*
X163476Y346926D01*
X163486Y346965D01*
X163496Y347013D01*
X163515Y347082D01*
X163535Y347160D01*
X163603Y347335D01*
X163681Y347530D01*
X163798Y347735D01*
X163935Y347930D01*
X164110Y348106D01*
X164120Y348116D01*
X164130Y348125D01*
X164159Y348145D01*
X164208Y348174D01*
X164257Y348203D01*
X164315Y348242D01*
X164461Y348330D01*
X164647Y348408D01*
X164871Y348476D01*
X165115Y348525D01*
X165252Y348545D01*
X165476D01*
X165573Y348535D01*
D02*
G37*
G36*
X136769Y389535D02*
X136827D01*
X136905Y389525D01*
X137081Y389496D01*
X137276Y389437D01*
X137480Y389359D01*
X137685Y389262D01*
X137783Y389193D01*
X137880Y389115D01*
X137890D01*
X137900Y389096D01*
X137958Y389038D01*
X138036Y388940D01*
X138134Y388813D01*
X138241Y388647D01*
X138329Y388452D01*
X138417Y388218D01*
X138466Y387955D01*
X137685Y387896D01*
Y387906D01*
Y387916D01*
X137666Y387974D01*
X137636Y388052D01*
X137607Y388150D01*
X137510Y388374D01*
X137451Y388472D01*
X137383Y388559D01*
X137373Y388579D01*
X137324Y388618D01*
X137256Y388667D01*
X137168Y388735D01*
X137051Y388794D01*
X136915Y388852D01*
X136759Y388891D01*
X136593Y388901D01*
X136525D01*
X136456Y388891D01*
X136369Y388872D01*
X136261Y388852D01*
X136144Y388813D01*
X136037Y388755D01*
X135920Y388686D01*
X135900Y388677D01*
X135861Y388638D01*
X135793Y388569D01*
X135715Y388481D01*
X135618Y388374D01*
X135520Y388238D01*
X135422Y388072D01*
X135335Y387887D01*
Y387877D01*
X135325Y387867D01*
X135315Y387828D01*
X135305Y387789D01*
X135286Y387740D01*
X135266Y387672D01*
X135247Y387594D01*
X135227Y387506D01*
X135208Y387409D01*
X135188Y387301D01*
X135169Y387174D01*
X135149Y387048D01*
X135140Y386901D01*
X135130Y386745D01*
X135120Y386580D01*
Y386414D01*
X135130Y386423D01*
X135169Y386472D01*
X135227Y386550D01*
X135315Y386648D01*
X135413Y386755D01*
X135530Y386862D01*
X135666Y386960D01*
X135813Y387048D01*
X135832Y387057D01*
X135881Y387077D01*
X135969Y387116D01*
X136076Y387155D01*
X136203Y387194D01*
X136349Y387233D01*
X136505Y387253D01*
X136671Y387262D01*
X136749D01*
X136807Y387253D01*
X136876Y387243D01*
X136954Y387233D01*
X137139Y387194D01*
X137344Y387116D01*
X137461Y387077D01*
X137568Y387019D01*
X137685Y386950D01*
X137802Y386872D01*
X137910Y386784D01*
X138017Y386677D01*
X138027Y386667D01*
X138036Y386648D01*
X138066Y386619D01*
X138105Y386570D01*
X138144Y386511D01*
X138193Y386443D01*
X138241Y386365D01*
X138300Y386277D01*
X138349Y386170D01*
X138397Y386063D01*
X138446Y385936D01*
X138485Y385809D01*
X138524Y385663D01*
X138553Y385516D01*
X138563Y385351D01*
X138573Y385185D01*
Y385175D01*
Y385155D01*
Y385126D01*
Y385087D01*
X138563Y385029D01*
Y384970D01*
X138544Y384814D01*
X138505Y384648D01*
X138466Y384453D01*
X138397Y384258D01*
X138309Y384063D01*
Y384053D01*
X138300Y384044D01*
X138280Y384014D01*
X138261Y383975D01*
X138202Y383888D01*
X138124Y383770D01*
X138017Y383644D01*
X137890Y383517D01*
X137754Y383390D01*
X137588Y383273D01*
X137568Y383263D01*
X137510Y383234D01*
X137412Y383185D01*
X137295Y383136D01*
X137139Y383088D01*
X136964Y383039D01*
X136769Y383010D01*
X136564Y383000D01*
X136525D01*
X136466Y383010D01*
X136398D01*
X136320Y383019D01*
X136222Y383039D01*
X136115Y383059D01*
X135998Y383088D01*
X135871Y383127D01*
X135735Y383176D01*
X135608Y383234D01*
X135471Y383302D01*
X135335Y383390D01*
X135198Y383488D01*
X135071Y383595D01*
X134954Y383722D01*
X134944Y383731D01*
X134925Y383761D01*
X134896Y383800D01*
X134857Y383858D01*
X134808Y383936D01*
X134759Y384034D01*
X134701Y384151D01*
X134652Y384287D01*
X134593Y384444D01*
X134535Y384619D01*
X134486Y384814D01*
X134437Y385029D01*
X134398Y385263D01*
X134369Y385526D01*
X134350Y385799D01*
X134340Y386102D01*
Y386111D01*
Y386121D01*
Y386150D01*
Y386180D01*
Y386277D01*
X134350Y386404D01*
X134359Y386560D01*
X134379Y386736D01*
X134398Y386931D01*
X134428Y387136D01*
X134457Y387360D01*
X134506Y387584D01*
X134564Y387808D01*
X134632Y388023D01*
X134710Y388247D01*
X134798Y388442D01*
X134906Y388638D01*
X135023Y388803D01*
X135032Y388813D01*
X135052Y388833D01*
X135081Y388872D01*
X135130Y388920D01*
X135198Y388979D01*
X135266Y389038D01*
X135354Y389106D01*
X135452Y389174D01*
X135559Y389242D01*
X135686Y389311D01*
X135813Y389369D01*
X135959Y389428D01*
X136115Y389476D01*
X136281Y389515D01*
X136456Y389535D01*
X136642Y389545D01*
X136710D01*
X136769Y389535D01*
D02*
G37*
G36*
X131180Y389613D02*
X131258Y389603D01*
X131355Y389593D01*
X131462Y389584D01*
X131580Y389564D01*
X131833Y389506D01*
X132106Y389418D01*
X132243Y389359D01*
X132379Y389291D01*
X132506Y389213D01*
X132633Y389125D01*
X132643Y389115D01*
X132662Y389106D01*
X132691Y389076D01*
X132740Y389038D01*
X132789Y388989D01*
X132857Y388920D01*
X132926Y388852D01*
X132994Y388774D01*
X133072Y388677D01*
X133140Y388579D01*
X133218Y388462D01*
X133296Y388335D01*
X133364Y388208D01*
X133433Y388062D01*
X133550Y387750D01*
X132711Y387555D01*
Y387565D01*
X132701Y387584D01*
X132691Y387623D01*
X132672Y387672D01*
X132643Y387730D01*
X132613Y387799D01*
X132545Y387945D01*
X132457Y388111D01*
X132340Y388286D01*
X132213Y388442D01*
X132058Y388579D01*
X132038Y388589D01*
X131979Y388628D01*
X131892Y388677D01*
X131765Y388745D01*
X131619Y388803D01*
X131433Y388852D01*
X131228Y388891D01*
X130994Y388901D01*
X130926D01*
X130877Y388891D01*
X130809D01*
X130741Y388881D01*
X130565Y388852D01*
X130370Y388813D01*
X130165Y388745D01*
X129960Y388657D01*
X129765Y388540D01*
X129756D01*
X129746Y388521D01*
X129687Y388472D01*
X129600Y388394D01*
X129492Y388286D01*
X129385Y388150D01*
X129268Y387994D01*
X129161Y387799D01*
X129073Y387584D01*
Y387574D01*
X129063Y387555D01*
X129053Y387526D01*
X129044Y387477D01*
X129024Y387428D01*
X129014Y387360D01*
X128975Y387204D01*
X128936Y387019D01*
X128907Y386814D01*
X128888Y386589D01*
X128878Y386355D01*
Y386345D01*
Y386316D01*
Y386277D01*
Y386219D01*
X128888Y386150D01*
Y386063D01*
X128897Y385975D01*
X128907Y385877D01*
X128936Y385653D01*
X128975Y385409D01*
X129034Y385165D01*
X129112Y384931D01*
Y384921D01*
X129122Y384902D01*
X129141Y384873D01*
X129161Y384834D01*
X129209Y384717D01*
X129287Y384590D01*
X129395Y384434D01*
X129522Y384287D01*
X129668Y384141D01*
X129843Y384014D01*
X129853D01*
X129863Y384005D01*
X129892Y383985D01*
X129931Y383966D01*
X130038Y383927D01*
X130175Y383868D01*
X130331Y383819D01*
X130516Y383770D01*
X130721Y383731D01*
X130936Y383722D01*
X131004D01*
X131053Y383731D01*
X131111D01*
X131189Y383741D01*
X131355Y383770D01*
X131540Y383819D01*
X131745Y383897D01*
X131940Y383995D01*
X132135Y384131D01*
X132145Y384141D01*
X132155Y384151D01*
X132213Y384209D01*
X132301Y384307D01*
X132409Y384434D01*
X132516Y384609D01*
X132633Y384814D01*
X132731Y385068D01*
X132809Y385351D01*
X133657Y385136D01*
Y385126D01*
X133647Y385087D01*
X133628Y385038D01*
X133608Y384961D01*
X133569Y384882D01*
X133530Y384775D01*
X133491Y384668D01*
X133433Y384551D01*
X133306Y384287D01*
X133130Y384024D01*
X132935Y383770D01*
X132818Y383653D01*
X132691Y383546D01*
X132682Y383536D01*
X132662Y383527D01*
X132623Y383497D01*
X132565Y383458D01*
X132496Y383419D01*
X132418Y383371D01*
X132331Y383322D01*
X132223Y383273D01*
X132106Y383224D01*
X131979Y383176D01*
X131833Y383127D01*
X131687Y383088D01*
X131365Y383019D01*
X131189Y383010D01*
X131004Y383000D01*
X130906D01*
X130829Y383010D01*
X130741D01*
X130643Y383019D01*
X130526Y383039D01*
X130409Y383049D01*
X130136Y383107D01*
X129853Y383176D01*
X129580Y383283D01*
X129444Y383341D01*
X129317Y383419D01*
X129307Y383429D01*
X129287Y383439D01*
X129258Y383468D01*
X129209Y383497D01*
X129092Y383595D01*
X128956Y383731D01*
X128790Y383897D01*
X128634Y384112D01*
X128468Y384356D01*
X128332Y384639D01*
Y384648D01*
X128322Y384678D01*
X128302Y384717D01*
X128283Y384775D01*
X128254Y384853D01*
X128224Y384941D01*
X128195Y385038D01*
X128166Y385155D01*
X128137Y385273D01*
X128107Y385409D01*
X128049Y385702D01*
X128010Y386014D01*
X128000Y386355D01*
Y386365D01*
Y386404D01*
Y386453D01*
X128010Y386521D01*
Y386609D01*
X128020Y386716D01*
X128029Y386823D01*
X128049Y386950D01*
X128097Y387223D01*
X128156Y387516D01*
X128254Y387818D01*
X128380Y388101D01*
Y388111D01*
X128400Y388130D01*
X128419Y388169D01*
X128449Y388228D01*
X128488Y388286D01*
X128536Y388355D01*
X128663Y388521D01*
X128809Y388706D01*
X128995Y388891D01*
X129219Y389076D01*
X129463Y389232D01*
X129473D01*
X129492Y389252D01*
X129531Y389272D01*
X129590Y389291D01*
X129648Y389320D01*
X129726Y389359D01*
X129824Y389389D01*
X129921Y389428D01*
X130029Y389467D01*
X130146Y389496D01*
X130409Y389564D01*
X130702Y389603D01*
X131014Y389623D01*
X131111D01*
X131180Y389613D01*
D02*
G37*
G36*
X273657Y326000D02*
X272866D01*
Y331013D01*
X272857Y331004D01*
X272818Y330965D01*
X272750Y330916D01*
X272662Y330848D01*
X272554Y330760D01*
X272428Y330672D01*
X272281Y330565D01*
X272115Y330467D01*
X272106D01*
X272096Y330457D01*
X272038Y330418D01*
X271950Y330370D01*
X271842Y330311D01*
X271716Y330243D01*
X271579Y330184D01*
X271433Y330116D01*
X271296Y330057D01*
Y330828D01*
X271306D01*
X271325Y330838D01*
X271364Y330857D01*
X271404Y330886D01*
X271462Y330916D01*
X271530Y330945D01*
X271686Y331033D01*
X271862Y331140D01*
X272057Y331267D01*
X272252Y331413D01*
X272437Y331569D01*
X272447Y331579D01*
X272457Y331589D01*
X272515Y331647D01*
X272603Y331735D01*
X272710Y331842D01*
X272827Y331979D01*
X272945Y332125D01*
X273052Y332281D01*
X273140Y332437D01*
X273657D01*
Y326000D01*
D02*
G37*
G36*
X266849Y326751D02*
X269999D01*
Y326000D01*
X266000D01*
Y332408D01*
X266849D01*
Y326751D01*
D02*
G37*
G36*
X244171Y270990D02*
X244259D01*
X244357Y270980D01*
X244474Y270961D01*
X244591Y270951D01*
X244864Y270893D01*
X245147Y270824D01*
X245420Y270717D01*
X245557Y270659D01*
X245683Y270581D01*
X245693Y270571D01*
X245713Y270561D01*
X245742Y270532D01*
X245791Y270503D01*
X245908Y270405D01*
X246044Y270268D01*
X246210Y270103D01*
X246366Y269888D01*
X246532Y269644D01*
X246668Y269361D01*
Y269352D01*
X246678Y269322D01*
X246698Y269283D01*
X246717Y269225D01*
X246746Y269147D01*
X246776Y269059D01*
X246805Y268962D01*
X246834Y268844D01*
X246863Y268727D01*
X246893Y268591D01*
X246951Y268298D01*
X246990Y267986D01*
X247000Y267645D01*
Y267635D01*
Y267596D01*
Y267547D01*
X246990Y267479D01*
Y267391D01*
X246980Y267284D01*
X246971Y267177D01*
X246951Y267050D01*
X246903Y266777D01*
X246844Y266484D01*
X246746Y266182D01*
X246620Y265899D01*
Y265889D01*
X246600Y265870D01*
X246581Y265831D01*
X246551Y265772D01*
X246512Y265714D01*
X246464Y265645D01*
X246337Y265480D01*
X246190Y265294D01*
X246005Y265109D01*
X245781Y264923D01*
X245537Y264767D01*
X245527D01*
X245508Y264748D01*
X245469Y264728D01*
X245410Y264709D01*
X245352Y264680D01*
X245274Y264641D01*
X245176Y264611D01*
X245079Y264572D01*
X244971Y264533D01*
X244854Y264504D01*
X244591Y264436D01*
X244298Y264397D01*
X243986Y264377D01*
X243889D01*
X243820Y264387D01*
X243742Y264397D01*
X243645Y264407D01*
X243538Y264416D01*
X243420Y264436D01*
X243167Y264494D01*
X242894Y264582D01*
X242757Y264641D01*
X242621Y264709D01*
X242494Y264787D01*
X242367Y264875D01*
X242357Y264884D01*
X242338Y264894D01*
X242309Y264923D01*
X242260Y264963D01*
X242211Y265011D01*
X242143Y265080D01*
X242074Y265148D01*
X242006Y265226D01*
X241928Y265323D01*
X241860Y265421D01*
X241782Y265538D01*
X241704Y265665D01*
X241635Y265792D01*
X241567Y265938D01*
X241450Y266250D01*
X242289Y266445D01*
Y266435D01*
X242299Y266416D01*
X242309Y266377D01*
X242328Y266328D01*
X242357Y266269D01*
X242386Y266201D01*
X242455Y266055D01*
X242543Y265889D01*
X242660Y265714D01*
X242786Y265557D01*
X242943Y265421D01*
X242962Y265411D01*
X243020Y265372D01*
X243108Y265323D01*
X243235Y265255D01*
X243381Y265197D01*
X243567Y265148D01*
X243771Y265109D01*
X244006Y265099D01*
X244074D01*
X244123Y265109D01*
X244191D01*
X244259Y265119D01*
X244435Y265148D01*
X244630Y265187D01*
X244835Y265255D01*
X245040Y265343D01*
X245235Y265460D01*
X245244D01*
X245254Y265480D01*
X245313Y265528D01*
X245400Y265606D01*
X245508Y265714D01*
X245615Y265850D01*
X245732Y266006D01*
X245839Y266201D01*
X245927Y266416D01*
Y266426D01*
X245937Y266445D01*
X245947Y266474D01*
X245956Y266523D01*
X245976Y266572D01*
X245986Y266640D01*
X246025Y266796D01*
X246064Y266982D01*
X246093Y267186D01*
X246112Y267411D01*
X246122Y267645D01*
Y267654D01*
Y267684D01*
Y267723D01*
Y267781D01*
X246112Y267850D01*
Y267937D01*
X246103Y268025D01*
X246093Y268123D01*
X246064Y268347D01*
X246025Y268591D01*
X245966Y268835D01*
X245888Y269069D01*
Y269079D01*
X245878Y269098D01*
X245859Y269127D01*
X245839Y269166D01*
X245791Y269283D01*
X245713Y269410D01*
X245605Y269566D01*
X245478Y269713D01*
X245332Y269859D01*
X245157Y269986D01*
X245147D01*
X245137Y269995D01*
X245108Y270015D01*
X245069Y270034D01*
X244961Y270073D01*
X244825Y270132D01*
X244669Y270181D01*
X244484Y270229D01*
X244279Y270268D01*
X244064Y270278D01*
X243996D01*
X243947Y270268D01*
X243889D01*
X243811Y270259D01*
X243645Y270229D01*
X243459Y270181D01*
X243255Y270103D01*
X243060Y270005D01*
X242864Y269869D01*
X242855Y269859D01*
X242845Y269849D01*
X242786Y269790D01*
X242699Y269693D01*
X242591Y269566D01*
X242484Y269391D01*
X242367Y269186D01*
X242269Y268932D01*
X242192Y268649D01*
X241343Y268864D01*
Y268874D01*
X241353Y268913D01*
X241372Y268962D01*
X241392Y269039D01*
X241431Y269118D01*
X241470Y269225D01*
X241509Y269332D01*
X241567Y269449D01*
X241694Y269713D01*
X241870Y269976D01*
X242065Y270229D01*
X242182Y270347D01*
X242309Y270454D01*
X242318Y270464D01*
X242338Y270473D01*
X242377Y270503D01*
X242435Y270542D01*
X242504Y270581D01*
X242582Y270629D01*
X242669Y270678D01*
X242777Y270727D01*
X242894Y270776D01*
X243020Y270824D01*
X243167Y270873D01*
X243313Y270912D01*
X243635Y270980D01*
X243811Y270990D01*
X243996Y271000D01*
X244093D01*
X244171Y270990D01*
D02*
G37*
G36*
X238680D02*
X238758Y270980D01*
X238856Y270971D01*
X238953Y270951D01*
X239070Y270932D01*
X239314Y270863D01*
X239441Y270815D01*
X239568Y270766D01*
X239694Y270698D01*
X239821Y270629D01*
X239938Y270542D01*
X240055Y270444D01*
X240065Y270434D01*
X240085Y270415D01*
X240104Y270385D01*
X240143Y270347D01*
X240192Y270288D01*
X240241Y270220D01*
X240289Y270142D01*
X240338Y270054D01*
X240397Y269956D01*
X240446Y269849D01*
X240543Y269615D01*
X240582Y269478D01*
X240602Y269342D01*
X240621Y269196D01*
X240631Y269039D01*
Y269030D01*
Y269010D01*
Y268981D01*
X240621Y268932D01*
Y268883D01*
X240611Y268815D01*
X240592Y268679D01*
X240553Y268513D01*
X240494Y268337D01*
X240426Y268162D01*
X240319Y267996D01*
Y267986D01*
X240299Y267976D01*
X240260Y267928D01*
X240182Y267850D01*
X240085Y267762D01*
X239958Y267664D01*
X239802Y267567D01*
X239617Y267479D01*
X239412Y267411D01*
X239421D01*
X239431Y267401D01*
X239490Y267381D01*
X239578Y267333D01*
X239685Y267284D01*
X239812Y267206D01*
X239929Y267118D01*
X240046Y267020D01*
X240143Y266903D01*
X240153Y266884D01*
X240182Y266845D01*
X240221Y266777D01*
X240260Y266679D01*
X240299Y266562D01*
X240338Y266426D01*
X240368Y266279D01*
X240377Y266113D01*
Y266104D01*
Y266084D01*
Y266045D01*
X240368Y265996D01*
X240358Y265938D01*
X240348Y265870D01*
X240319Y265704D01*
X240260Y265518D01*
X240163Y265323D01*
X240114Y265216D01*
X240046Y265119D01*
X239968Y265021D01*
X239880Y264933D01*
X239870Y264923D01*
X239860Y264914D01*
X239831Y264884D01*
X239792Y264855D01*
X239734Y264826D01*
X239675Y264777D01*
X239607Y264738D01*
X239519Y264689D01*
X239334Y264602D01*
X239100Y264533D01*
X238836Y264475D01*
X238700Y264465D01*
X238544Y264455D01*
X238466D01*
X238407Y264465D01*
X238329D01*
X238251Y264485D01*
X238056Y264514D01*
X237841Y264572D01*
X237617Y264660D01*
X237500Y264719D01*
X237393Y264777D01*
X237285Y264855D01*
X237188Y264943D01*
X237178Y264953D01*
X237168Y264963D01*
X237139Y264992D01*
X237110Y265031D01*
X237071Y265080D01*
X237022Y265138D01*
X236924Y265275D01*
X236837Y265450D01*
X236749Y265655D01*
X236690Y265879D01*
X236681Y266006D01*
X236671Y266133D01*
Y266152D01*
Y266211D01*
X236681Y266289D01*
X236700Y266396D01*
X236729Y266523D01*
X236768Y266650D01*
X236827Y266786D01*
X236905Y266913D01*
X236915Y266923D01*
X236944Y266962D01*
X237003Y267020D01*
X237081Y267099D01*
X237178Y267177D01*
X237305Y267255D01*
X237451Y267342D01*
X237617Y267411D01*
X237607D01*
X237588Y267420D01*
X237558Y267430D01*
X237519Y267450D01*
X237412Y267498D01*
X237285Y267557D01*
X237139Y267645D01*
X236993Y267752D01*
X236847Y267889D01*
X236720Y268035D01*
X236710Y268054D01*
X236671Y268113D01*
X236622Y268201D01*
X236564Y268328D01*
X236505Y268474D01*
X236456Y268649D01*
X236417Y268844D01*
X236408Y269059D01*
Y269069D01*
Y269098D01*
Y269137D01*
X236417Y269196D01*
X236427Y269264D01*
X236437Y269352D01*
X236476Y269547D01*
X236554Y269761D01*
X236593Y269878D01*
X236651Y269995D01*
X236720Y270112D01*
X236798Y270229D01*
X236886Y270337D01*
X236993Y270444D01*
X237003Y270454D01*
X237022Y270464D01*
X237051Y270493D01*
X237100Y270532D01*
X237159Y270571D01*
X237227Y270620D01*
X237305Y270668D01*
X237402Y270717D01*
X237510Y270776D01*
X237627Y270824D01*
X237754Y270873D01*
X237890Y270912D01*
X238027Y270951D01*
X238183Y270980D01*
X238349Y270990D01*
X238524Y271000D01*
X238612D01*
X238680Y270990D01*
D02*
G37*
G36*
X299870Y237389D02*
X299977Y237233D01*
X300094Y237086D01*
X300212Y236950D01*
X300319Y236842D01*
X300406Y236755D01*
X300465Y236696D01*
X300475Y236686D01*
X300485Y236677D01*
X300670Y236521D01*
X300865Y236374D01*
X301060Y236248D01*
X301236Y236140D01*
X301392Y236052D01*
X301460Y236023D01*
X301518Y235994D01*
X301558Y235965D01*
X301597Y235945D01*
X301616Y235935D01*
X301626D01*
Y235165D01*
X301489Y235223D01*
X301343Y235292D01*
X301206Y235350D01*
X301080Y235418D01*
X300972Y235477D01*
X300884Y235526D01*
X300826Y235565D01*
X300816Y235574D01*
X300806D01*
X300641Y235672D01*
X300494Y235779D01*
X300368Y235867D01*
X300260Y235955D01*
X300173Y236023D01*
X300104Y236072D01*
X300065Y236111D01*
X300055Y236121D01*
Y231107D01*
X299265D01*
Y237545D01*
X299782D01*
X299870Y237389D01*
D02*
G37*
G36*
X307000Y232863D02*
Y232687D01*
X306990Y232541D01*
Y232414D01*
X306980Y232307D01*
X306971Y232229D01*
Y232180D01*
X306961Y232141D01*
Y232131D01*
X306932Y232005D01*
X306893Y231897D01*
X306854Y231800D01*
X306805Y231712D01*
X306776Y231644D01*
X306746Y231585D01*
X306727Y231556D01*
X306717Y231546D01*
X306639Y231458D01*
X306561Y231390D01*
X306473Y231322D01*
X306385Y231263D01*
X306308Y231215D01*
X306249Y231185D01*
X306210Y231166D01*
X306190Y231156D01*
X306054Y231107D01*
X305917Y231068D01*
X305791Y231039D01*
X305674Y231019D01*
X305566Y231010D01*
X305488Y231000D01*
X305420D01*
X305254Y231010D01*
X305088Y231029D01*
X304942Y231068D01*
X304796Y231127D01*
X304669Y231185D01*
X304542Y231244D01*
X304435Y231322D01*
X304337Y231390D01*
X304249Y231458D01*
X304171Y231537D01*
X304103Y231595D01*
X304045Y231663D01*
X304006Y231712D01*
X303976Y231751D01*
X303957Y231771D01*
X303947Y231780D01*
Y231107D01*
X303245D01*
Y235750D01*
X304035D01*
Y233253D01*
X304045Y233048D01*
X304054Y232863D01*
X304074Y232707D01*
X304103Y232580D01*
X304132Y232473D01*
X304152Y232404D01*
X304162Y232365D01*
X304171Y232346D01*
X304230Y232239D01*
X304289Y232141D01*
X304366Y232053D01*
X304435Y231985D01*
X304503Y231927D01*
X304562Y231888D01*
X304601Y231858D01*
X304610Y231849D01*
X304727Y231790D01*
X304844Y231751D01*
X304952Y231712D01*
X305049Y231693D01*
X305137Y231683D01*
X305205Y231673D01*
X305264D01*
X305391Y231683D01*
X305508Y231702D01*
X305605Y231731D01*
X305693Y231761D01*
X305761Y231790D01*
X305810Y231819D01*
X305849Y231839D01*
X305859Y231849D01*
X305937Y231917D01*
X306005Y231995D01*
X306064Y232083D01*
X306103Y232161D01*
X306132Y232229D01*
X306151Y232288D01*
X306171Y232327D01*
Y232336D01*
X306181Y232434D01*
X306190Y232561D01*
X306200Y232697D01*
Y232834D01*
X306210Y232960D01*
Y233068D01*
Y233107D01*
Y233136D01*
Y233156D01*
Y233165D01*
Y235750D01*
X307000D01*
Y232863D01*
D02*
G37*
%LPC*%
G36*
X157559Y133356D02*
X157511D01*
X157472Y133346D01*
X157374Y133327D01*
X157247Y133288D01*
X157101Y133229D01*
X156955Y133142D01*
X156877Y133083D01*
X156799Y133005D01*
X156721Y132927D01*
X156652Y132839D01*
Y132830D01*
X156633Y132810D01*
X156613Y132781D01*
X156594Y132732D01*
X156565Y132673D01*
X156535Y132586D01*
X156506Y132488D01*
X156467Y132381D01*
X156428Y132244D01*
X156399Y132098D01*
X156370Y131922D01*
X156340Y131727D01*
X156311Y131513D01*
X156301Y131279D01*
X156282Y131015D01*
Y130732D01*
Y130713D01*
Y130664D01*
Y130586D01*
X156292Y130479D01*
Y130352D01*
X156301Y130206D01*
X156311Y130050D01*
X156331Y129874D01*
X156370Y129523D01*
X156438Y129182D01*
X156477Y129016D01*
X156526Y128869D01*
X156584Y128743D01*
X156652Y128636D01*
Y128626D01*
X156672Y128616D01*
X156721Y128557D01*
X156799Y128470D01*
X156906Y128372D01*
X157043Y128275D01*
X157199Y128187D01*
X157374Y128128D01*
X157472Y128118D01*
X157569Y128109D01*
X157618D01*
X157657Y128118D01*
X157755Y128128D01*
X157881Y128167D01*
X158018Y128226D01*
X158164Y128304D01*
X158311Y128421D01*
X158379Y128499D01*
X158437Y128577D01*
Y128587D01*
X158457Y128606D01*
X158476Y128645D01*
X158496Y128694D01*
X158525Y128762D01*
X158564Y128840D01*
X158603Y128948D01*
X158632Y129065D01*
X158671Y129201D01*
X158710Y129357D01*
X158740Y129533D01*
X158779Y129738D01*
X158798Y129952D01*
X158818Y130186D01*
X158837Y130450D01*
Y130732D01*
Y130752D01*
Y130801D01*
Y130879D01*
X158827Y130986D01*
Y131113D01*
X158818Y131259D01*
X158808Y131425D01*
X158788Y131591D01*
X158750Y131942D01*
X158681Y132293D01*
X158642Y132449D01*
X158593Y132595D01*
X158535Y132732D01*
X158476Y132839D01*
Y132849D01*
X158457Y132859D01*
X158408Y132917D01*
X158330Y133005D01*
X158223Y133093D01*
X158086Y133190D01*
X157930Y133278D01*
X157755Y133337D01*
X157657Y133346D01*
X157559Y133356D01*
D02*
G37*
G36*
X255105Y312228D02*
Y309360D01*
X257114D01*
X255105Y312228D01*
D02*
G37*
G36*
X342708Y262812D02*
X342679D01*
X342660D01*
X342650D01*
X342406Y262792D01*
X342191Y262753D01*
X341996Y262695D01*
X341840Y262617D01*
X341713Y262548D01*
X341616Y262490D01*
X341557Y262451D01*
X341538Y262431D01*
X341460Y262353D01*
X341392Y262275D01*
X341294Y262119D01*
X341216Y261973D01*
X341157Y261826D01*
X341128Y261700D01*
X341119Y261602D01*
X341109Y261563D01*
Y261514D01*
X341128Y261329D01*
X341167Y261163D01*
X341236Y261017D01*
X341304Y260890D01*
X341382Y260783D01*
X341450Y260715D01*
X341489Y260666D01*
X341509Y260646D01*
X341674Y260529D01*
X341850Y260441D01*
X342026Y260373D01*
X342201Y260334D01*
X342357Y260305D01*
X342416Y260295D01*
X342474D01*
X342523Y260285D01*
X342562D01*
X342581D01*
X342591D01*
X342825Y260305D01*
X343040Y260344D01*
X343215Y260403D01*
X343372Y260461D01*
X343489Y260529D01*
X343576Y260588D01*
X343625Y260627D01*
X343645Y260646D01*
X343772Y260783D01*
X343869Y260929D01*
X343927Y261085D01*
X343976Y261222D01*
X344006Y261349D01*
X344015Y261446D01*
X344025Y261485D01*
Y261534D01*
X344006Y261729D01*
X343966Y261905D01*
X343908Y262061D01*
X343830Y262197D01*
X343762Y262304D01*
X343703Y262383D01*
X343664Y262431D01*
X343645Y262451D01*
X343489Y262568D01*
X343333Y262656D01*
X343167Y262724D01*
X343001Y262763D01*
X342864Y262792D01*
X342747Y262802D01*
X342708Y262812D01*
D02*
G37*
G36*
X136515Y386570D02*
X136466D01*
X136427Y386560D01*
X136329Y386550D01*
X136203Y386521D01*
X136066Y386472D01*
X135910Y386404D01*
X135764Y386306D01*
X135618Y386180D01*
X135598Y386160D01*
X135559Y386111D01*
X135500Y386024D01*
X135432Y385916D01*
X135364Y385770D01*
X135305Y385594D01*
X135266Y385399D01*
X135247Y385175D01*
Y385155D01*
Y385107D01*
X135257Y385029D01*
X135266Y384931D01*
X135286Y384804D01*
X135315Y384678D01*
X135354Y384541D01*
X135413Y384395D01*
X135422Y384375D01*
X135442Y384336D01*
X135481Y384268D01*
X135540Y384190D01*
X135608Y384092D01*
X135686Y384005D01*
X135783Y383907D01*
X135891Y383829D01*
X135900Y383819D01*
X135949Y383800D01*
X136008Y383770D01*
X136086Y383741D01*
X136183Y383702D01*
X136300Y383673D01*
X136417Y383653D01*
X136544Y383644D01*
X136593D01*
X136632Y383653D01*
X136720Y383663D01*
X136847Y383693D01*
X136973Y383741D01*
X137120Y383810D01*
X137266Y383907D01*
X137402Y384044D01*
X137422Y384063D01*
X137461Y384122D01*
X137520Y384209D01*
X137588Y384327D01*
X137646Y384482D01*
X137705Y384678D01*
X137744Y384892D01*
X137763Y385136D01*
Y385146D01*
Y385165D01*
Y385204D01*
X137754Y385243D01*
Y385302D01*
X137744Y385370D01*
X137724Y385516D01*
X137676Y385682D01*
X137617Y385858D01*
X137529Y386024D01*
X137412Y386180D01*
X137393Y386199D01*
X137354Y386238D01*
X137276Y386306D01*
X137168Y386375D01*
X137042Y386443D01*
X136885Y386511D01*
X136710Y386550D01*
X136515Y386570D01*
D02*
G37*
G36*
X238514Y270356D02*
X238456D01*
X238417Y270347D01*
X238319Y270337D01*
X238183Y270308D01*
X238036Y270268D01*
X237880Y270200D01*
X237734Y270112D01*
X237588Y269995D01*
X237568Y269976D01*
X237529Y269927D01*
X237471Y269849D01*
X237402Y269742D01*
X237334Y269615D01*
X237276Y269449D01*
X237237Y269274D01*
X237217Y269069D01*
Y269059D01*
Y269039D01*
Y269010D01*
X237227Y268971D01*
X237237Y268874D01*
X237266Y268737D01*
X237305Y268591D01*
X237373Y268435D01*
X237471Y268279D01*
X237598Y268132D01*
X237617Y268113D01*
X237666Y268074D01*
X237744Y268015D01*
X237851Y267937D01*
X237988Y267869D01*
X238153Y267811D01*
X238339Y267771D01*
X238544Y267752D01*
X238592D01*
X238631Y267762D01*
X238739Y267771D01*
X238866Y267801D01*
X239012Y267840D01*
X239168Y267908D01*
X239314Y267996D01*
X239461Y268123D01*
X239480Y268142D01*
X239519Y268191D01*
X239578Y268269D01*
X239636Y268376D01*
X239704Y268513D01*
X239763Y268669D01*
X239802Y268854D01*
X239821Y269049D01*
Y269059D01*
Y269108D01*
X239812Y269166D01*
X239802Y269254D01*
X239782Y269352D01*
X239753Y269469D01*
X239714Y269586D01*
X239665Y269703D01*
X239655Y269713D01*
X239636Y269751D01*
X239597Y269810D01*
X239548Y269878D01*
X239480Y269956D01*
X239402Y270044D01*
X239304Y270122D01*
X239197Y270190D01*
X239178Y270200D01*
X239139Y270220D01*
X239080Y270239D01*
X238992Y270268D01*
X238885Y270308D01*
X238778Y270327D01*
X238651Y270347D01*
X238514Y270356D01*
D02*
G37*
G36*
X238524Y267108D02*
X238446D01*
X238368Y267089D01*
X238261Y267069D01*
X238144Y267040D01*
X238017Y266991D01*
X237890Y266923D01*
X237773Y266826D01*
X237763Y266816D01*
X237724Y266777D01*
X237675Y266718D01*
X237627Y266630D01*
X237568Y266533D01*
X237529Y266406D01*
X237490Y266269D01*
X237481Y266123D01*
Y266113D01*
Y266104D01*
Y266055D01*
X237500Y265967D01*
X237519Y265870D01*
X237558Y265762D01*
X237607Y265636D01*
X237685Y265518D01*
X237783Y265401D01*
X237793Y265392D01*
X237832Y265353D01*
X237900Y265304D01*
X237988Y265245D01*
X238095Y265197D01*
X238222Y265148D01*
X238358Y265109D01*
X238524Y265099D01*
X238602D01*
X238680Y265119D01*
X238787Y265138D01*
X238904Y265167D01*
X239031Y265226D01*
X239158Y265294D01*
X239275Y265392D01*
X239285Y265401D01*
X239324Y265440D01*
X239363Y265509D01*
X239421Y265587D01*
X239470Y265684D01*
X239519Y265811D01*
X239558Y265938D01*
X239568Y266084D01*
Y266104D01*
Y266162D01*
X239548Y266240D01*
X239529Y266348D01*
X239499Y266465D01*
X239451Y266582D01*
X239382Y266708D01*
X239285Y266826D01*
X239275Y266835D01*
X239236Y266864D01*
X239168Y266913D01*
X239080Y266962D01*
X238973Y267020D01*
X238836Y267059D01*
X238690Y267099D01*
X238524Y267108D01*
D02*
G37*
%LPD*%
D12*
X197000Y66000D02*
Y193000D01*
Y66000D02*
X363000D01*
Y193000D01*
X197000D02*
X363000D01*
X93000Y115000D02*
X191000D01*
Y67000D02*
Y115000D01*
X93000Y67000D02*
X191000D01*
X93000D02*
Y115000D01*
X97000Y67000D02*
Y115000D01*
X181000Y220000D02*
X215000D01*
Y200000D02*
Y220000D01*
X181000Y200000D02*
X215000D01*
X181000D02*
Y220000D01*
X180000Y119000D02*
Y139000D01*
X146000D02*
X180000D01*
X146000Y119000D02*
Y139000D01*
Y119000D02*
X180000D01*
X68000Y354000D02*
Y386000D01*
X52000Y354000D02*
X68000D01*
X52000D02*
Y386000D01*
X68000D01*
X32380Y87780D02*
X47620D01*
Y111910D02*
Y115720D01*
X32380D02*
X47620D01*
X32380Y83970D02*
Y115720D01*
Y83970D02*
X47620D01*
Y115720D01*
X33380Y382970D02*
X48620D01*
X33380Y355030D02*
Y358840D01*
Y355030D02*
X48620D01*
Y386780D01*
X33380D02*
X48620D01*
X33380Y355030D02*
Y386780D01*
X52000Y84000D02*
Y116000D01*
X68000D01*
Y84000D02*
Y116000D01*
X52000Y84000D02*
X68000D01*
X211000Y251000D02*
X231000D01*
Y217000D02*
Y251000D01*
X211000Y217000D02*
X231000D01*
X211000D02*
Y251000D01*
X277000Y321000D02*
X309000D01*
Y337000D01*
X277000D02*
X309000D01*
X277000Y321000D02*
Y337000D01*
X239500Y299000D02*
X275500D01*
X239500Y279000D02*
Y299000D01*
Y279000D02*
X275500D01*
Y299000D01*
X273000Y302000D02*
Y322000D01*
X239000Y302000D02*
X273000D01*
X239000D02*
Y322000D01*
X273000D01*
X277000Y318000D02*
X309000D01*
X277000Y302000D02*
Y318000D01*
Y302000D02*
X309000D01*
Y318000D01*
X279000Y299000D02*
X315000D01*
X279000Y279000D02*
Y299000D01*
Y279000D02*
X315000D01*
Y299000D01*
X312000Y302000D02*
X344000D01*
Y318000D01*
X312000D02*
X344000D01*
X312000Y302000D02*
Y318000D01*
X318000Y281000D02*
X350000D01*
Y297000D01*
X318000D02*
X350000D01*
X318000Y281000D02*
Y297000D01*
X332000Y279000D02*
X352000D01*
Y245000D02*
Y279000D01*
X332000Y245000D02*
X352000D01*
X332000D02*
Y279000D01*
Y242000D02*
X352000D01*
Y208000D02*
Y242000D01*
X332000Y208000D02*
X352000D01*
X332000D02*
Y242000D01*
X356000Y228000D02*
Y264000D01*
Y228000D02*
X376000D01*
Y264000D01*
X356000D02*
X376000D01*
X354000Y224000D02*
X386000D01*
X354000Y208000D02*
Y224000D01*
Y208000D02*
X386000D01*
Y224000D01*
X345500Y171000D02*
Y191000D01*
X379500D01*
Y171000D02*
Y191000D01*
X345500Y171000D02*
X379500D01*
X307000D02*
X343000D01*
Y191000D01*
X307000D02*
X343000D01*
X307000Y171000D02*
Y191000D01*
X268000D02*
X304000D01*
X268000Y171000D02*
Y191000D01*
Y171000D02*
X304000D01*
Y191000D01*
X229500Y171000D02*
X265500D01*
Y191000D01*
X229500D02*
X265500D01*
X229500Y171000D02*
Y191000D01*
X193000Y171000D02*
Y191000D01*
X227000D01*
Y171000D02*
Y191000D01*
X193000Y171000D02*
X227000D01*
X320000Y152000D02*
X352000D01*
Y168000D01*
X320000D02*
X352000D01*
X320000Y152000D02*
Y168000D01*
X286000D02*
X318000D01*
X286000Y152000D02*
Y168000D01*
Y152000D02*
X318000D01*
Y168000D01*
X304000Y134000D02*
X336000D01*
Y150000D01*
X304000D02*
X336000D01*
X304000Y134000D02*
Y150000D01*
X148000Y337000D02*
Y357000D01*
Y337000D02*
X182000D01*
Y357000D01*
X148000D02*
X182000D01*
X101000Y409000D02*
X199000D01*
Y361000D02*
Y409000D01*
X101000Y361000D02*
X199000D01*
X101000D02*
Y409000D01*
X105000Y361000D02*
Y409000D01*
X204000Y282000D02*
Y409000D01*
Y282000D02*
X370000D01*
Y409000D01*
X204000D02*
X370000D01*
X256000Y256000D02*
Y276000D01*
X222000D02*
X256000D01*
X222000Y256000D02*
Y276000D01*
Y256000D02*
X256000D01*
X183000D02*
X219000D01*
X183000D02*
Y276000D01*
X219000D01*
Y256000D02*
Y276000D01*
X218000Y220000D02*
X254000D01*
Y200000D02*
Y220000D01*
X218000Y200000D02*
X254000D01*
X218000D02*
Y220000D01*
D31*
X53540Y380460D02*
X62537D01*
Y375961D01*
X61038Y374462D01*
X58039D01*
X56539Y375961D01*
Y380460D01*
Y377461D02*
X53540Y374462D01*
X61038Y371463D02*
X62537Y369963D01*
Y366964D01*
X61038Y365465D01*
X59538D01*
X58039Y366964D01*
X56539Y365465D01*
X55040D01*
X53540Y366964D01*
Y369963D01*
X55040Y371463D01*
X56539D01*
X58039Y369963D01*
X59538Y371463D01*
X61038D01*
X58039Y369963D02*
Y366964D01*
X145463Y158040D02*
X152961D01*
X154460Y159539D01*
Y162539D01*
X152961Y164038D01*
X145463D01*
X146962Y167037D02*
X145463Y168537D01*
Y171536D01*
X146962Y173035D01*
X148462D01*
X149961Y171536D01*
Y170036D01*
Y171536D01*
X151461Y173035D01*
X152961D01*
X154460Y171536D01*
Y168537D01*
X152961Y167037D01*
X43917Y113180D02*
X34920D01*
Y108681D01*
X36419Y107182D01*
X42417D01*
X43917Y108681D01*
Y113180D01*
X34920Y104183D02*
Y101184D01*
Y102683D01*
X43917D01*
X42417Y104183D01*
X150463Y297040D02*
X157960D01*
X159460Y298540D01*
Y301539D01*
X157960Y303038D01*
X150463D01*
X159460Y312035D02*
Y306037D01*
X153462Y312035D01*
X151962D01*
X150463Y310536D01*
Y307537D01*
X151962Y306037D01*
X37083Y357570D02*
X46080D01*
Y362068D01*
X44580Y363568D01*
X38582D01*
X37083Y362068D01*
Y357570D01*
X46080Y372565D02*
Y366567D01*
X40082Y372565D01*
X38582D01*
X37083Y371066D01*
Y368067D01*
X38582Y366567D01*
X66460Y89540D02*
X57463D01*
Y94038D01*
X58962Y95538D01*
X61961D01*
X63461Y94038D01*
Y89540D01*
Y92539D02*
X66460Y95538D01*
X57463Y98537D02*
Y104535D01*
X58962D01*
X64960Y98537D01*
X66460D01*
X282540Y335460D02*
Y326463D01*
X287038D01*
X288538Y327962D01*
Y330961D01*
X287038Y332461D01*
X282540D01*
X285539D02*
X288538Y335460D01*
X291537D02*
X294536D01*
X293036D01*
Y326463D01*
X291537Y327962D01*
X299035Y333960D02*
X300534Y335460D01*
X303533D01*
X305033Y333960D01*
Y327962D01*
X303533Y326463D01*
X300534D01*
X299035Y327962D01*
Y329462D01*
X300534Y330961D01*
X305033D01*
X269960Y282540D02*
Y291537D01*
X265461D01*
X263962Y290038D01*
Y287038D01*
X265461Y285539D01*
X269960D01*
X266961D02*
X263962Y282540D01*
X260963D02*
X257964D01*
X259463D01*
Y291537D01*
X260963Y290038D01*
X253465D02*
X251966Y291537D01*
X248967D01*
X247467Y290038D01*
Y284039D01*
X248967Y282540D01*
X251966D01*
X253465Y284039D01*
Y290038D01*
X303460Y303540D02*
Y312537D01*
X298962D01*
X297462Y311038D01*
Y308039D01*
X298962Y306539D01*
X303460D01*
X300461D02*
X297462Y303540D01*
X294463D02*
X291464D01*
X292963D01*
Y312537D01*
X294463Y311038D01*
X286965D02*
X285466Y312537D01*
X282467D01*
X280967Y311038D01*
Y309538D01*
X282467Y308039D01*
X283966D01*
X282467D01*
X280967Y306539D01*
Y305040D01*
X282467Y303540D01*
X285466D01*
X286965Y305040D01*
X309460Y282540D02*
Y291537D01*
X304961D01*
X303462Y290038D01*
Y287038D01*
X304961Y285539D01*
X309460D01*
X306461D02*
X303462Y282540D01*
X295964D02*
Y291537D01*
X300463Y287038D01*
X294465D01*
X317540Y316460D02*
Y307463D01*
X322038D01*
X323538Y308962D01*
Y311961D01*
X322038Y313461D01*
X317540D01*
X320539D02*
X323538Y316460D01*
X326537D02*
X329536D01*
X328036D01*
Y307463D01*
X326537Y308962D01*
X334035Y316460D02*
X337034D01*
X335534D01*
Y307463D01*
X334035Y308962D01*
X323540Y295460D02*
Y286463D01*
X328038D01*
X329538Y287962D01*
Y290961D01*
X328038Y292461D01*
X323540D01*
X326539D02*
X329538Y295460D01*
X332537D02*
X335536D01*
X334037D01*
Y286463D01*
X332537Y287962D01*
X346033Y295460D02*
X340035D01*
X346033Y289462D01*
Y287962D01*
X344533Y286463D01*
X341534D01*
X340035Y287962D01*
X372460Y258460D02*
X363463D01*
Y253962D01*
X364962Y252462D01*
X367961D01*
X369461Y253962D01*
Y258460D01*
Y255461D02*
X372460Y252462D01*
Y249463D02*
Y246464D01*
Y247963D01*
X363463D01*
X364962Y249463D01*
X363463Y235967D02*
X364962Y238966D01*
X367961Y241965D01*
X370960D01*
X372460Y240466D01*
Y237467D01*
X370960Y235967D01*
X369461D01*
X367961Y237467D01*
Y241965D01*
X380460Y209540D02*
Y218537D01*
X375961D01*
X374462Y217038D01*
Y214039D01*
X375961Y212539D01*
X380460D01*
X377461D02*
X374462Y209540D01*
X365465D02*
X371463D01*
X365465Y215538D01*
Y217038D01*
X366964Y218537D01*
X369963D01*
X371463Y217038D01*
X312540Y187460D02*
Y178463D01*
X317038D01*
X318538Y179962D01*
Y182962D01*
X317038Y184461D01*
X312540D01*
X315539D02*
X318538Y187460D01*
X327535Y178463D02*
X321537D01*
Y182962D01*
X324536Y181462D01*
X326036D01*
X327535Y182962D01*
Y185961D01*
X326036Y187460D01*
X323036D01*
X321537Y185961D01*
X298460Y174540D02*
Y183537D01*
X293961D01*
X292462Y182038D01*
Y179039D01*
X293961Y177539D01*
X298460D01*
X295461D02*
X292462Y174540D01*
X289463Y176040D02*
X287963Y174540D01*
X284964D01*
X283465Y176040D01*
Y182038D01*
X284964Y183537D01*
X287963D01*
X289463Y182038D01*
Y180538D01*
X287963Y179039D01*
X283465D01*
X235040Y187460D02*
Y178463D01*
X239538D01*
X241038Y179962D01*
Y182962D01*
X239538Y184461D01*
X235040D01*
X238039D02*
X241038Y187460D01*
X244037D02*
X247036D01*
X245537D01*
Y178463D01*
X244037Y179962D01*
X251535Y178463D02*
X257533D01*
Y179962D01*
X251535Y185961D01*
Y187460D01*
X325540Y166460D02*
Y157463D01*
X330038D01*
X331538Y158962D01*
Y161961D01*
X330038Y163461D01*
X325540D01*
X328539D02*
X331538Y166460D01*
X334537D02*
X337536D01*
X336037D01*
Y157463D01*
X334537Y158962D01*
X346533Y166460D02*
Y157463D01*
X342035Y161961D01*
X348033D01*
X312460Y153540D02*
Y162537D01*
X307961D01*
X306462Y161038D01*
Y158039D01*
X307961Y156539D01*
X312460D01*
X309461D02*
X306462Y153540D01*
X303463D02*
X300464D01*
X301963D01*
Y162537D01*
X303463Y161038D01*
X289967Y162537D02*
X295965D01*
Y158039D01*
X292966Y159538D01*
X291467D01*
X289967Y158039D01*
Y155040D01*
X291467Y153540D01*
X294466D01*
X295965Y155040D01*
X309540Y148460D02*
Y139463D01*
X314039D01*
X315538Y140962D01*
Y143961D01*
X314039Y145461D01*
X309540D01*
X312539D02*
X315538Y148460D01*
X324535D02*
X318537D01*
X324535Y142462D01*
Y140962D01*
X323036Y139463D01*
X320037D01*
X318537Y140962D01*
X327534D02*
X329034Y139463D01*
X332033D01*
X333532Y140962D01*
Y146960D01*
X332033Y148460D01*
X329034D01*
X327534Y146960D01*
Y140962D01*
X213460Y272460D02*
Y263463D01*
X208961D01*
X207462Y264962D01*
Y267961D01*
X208961Y269461D01*
X213460D01*
X210461D02*
X207462Y272460D01*
X198465Y263463D02*
X201464Y264962D01*
X204463Y267961D01*
Y270960D01*
X202963Y272460D01*
X199964D01*
X198465Y270960D01*
Y269461D01*
X199964Y267961D01*
X204463D01*
X223540Y203540D02*
Y212537D01*
X228039D01*
X229538Y211038D01*
Y208039D01*
X228039Y206539D01*
X223540D01*
X226539D02*
X229538Y203540D01*
X232537D02*
X235536D01*
X234037D01*
Y212537D01*
X232537Y211038D01*
X240035D02*
X241534Y212537D01*
X244533D01*
X246033Y211038D01*
Y209538D01*
X244533Y208039D01*
X246033Y206539D01*
Y205040D01*
X244533Y203540D01*
X241534D01*
X240035Y205040D01*
Y206539D01*
X241534Y208039D01*
X240035Y209538D01*
Y211038D01*
X241534Y208039D02*
X244533D01*
M02*
