G04*
G04 #@! TF.GenerationSoftware,Altium Limited,Altium Designer,20.0.13 (296)*
G04*
G04 Layer_Color=16711935*
%FSLAX44Y44*%
%MOMM*%
G71*
G01*
G75*
%ADD23R,1.4032X1.7032*%
%ADD27R,1.3032X1.7032*%
%ADD28R,3.2032X3.2032*%
%ADD29C,5.2032*%
%ADD40O,0.2500X0.9000*%
%ADD41O,0.9000X0.2500*%
%ADD43R,1.7032X1.4032*%
%ADD44R,1.2032X1.2032*%
%ADD45R,1.7032X1.3032*%
%ADD46R,3.5032X3.5032*%
%ADD47O,0.3700X1.0200*%
%ADD48O,1.0200X0.3700*%
D23*
X264500Y312000D02*
D03*
X247500D02*
D03*
X354000Y181000D02*
D03*
X371000D02*
D03*
X201500D02*
D03*
X218500D02*
D03*
D27*
X267000Y289000D02*
D03*
X248000D02*
D03*
X306500D02*
D03*
X287500D02*
D03*
X315500Y181000D02*
D03*
X334500D02*
D03*
X295500D02*
D03*
X276500D02*
D03*
X238000D02*
D03*
X257000D02*
D03*
D28*
X420000Y271000D02*
D03*
Y220000D02*
D03*
X60000Y330000D02*
D03*
Y280000D02*
D03*
Y140000D02*
D03*
Y190000D02*
D03*
D29*
X460000Y430000D02*
D03*
X40000D02*
D03*
X460000Y40000D02*
D03*
X40000D02*
D03*
D40*
X308500Y259750D02*
D03*
X273500D02*
D03*
Y212250D02*
D03*
X308500D02*
D03*
D41*
X267250Y253500D02*
D03*
Y218500D02*
D03*
X314750D02*
D03*
Y253500D02*
D03*
D43*
X221000Y242500D02*
D03*
Y225500D02*
D03*
X342000Y270500D02*
D03*
Y253500D02*
D03*
Y233500D02*
D03*
Y216500D02*
D03*
D44*
X285000Y329000D02*
D03*
X301000D02*
D03*
X301000Y310000D02*
D03*
X285000D02*
D03*
X320000D02*
D03*
X336000D02*
D03*
X326000Y289000D02*
D03*
X342000D02*
D03*
X378000Y216000D02*
D03*
X362000D02*
D03*
X328000Y160000D02*
D03*
X344000D02*
D03*
X310000D02*
D03*
X294000D02*
D03*
X312000Y142000D02*
D03*
X328000D02*
D03*
D45*
X366000Y255500D02*
D03*
Y236500D02*
D03*
D46*
X291000Y236000D02*
D03*
D47*
X303500Y259750D02*
D03*
X298500D02*
D03*
X293500D02*
D03*
X288500D02*
D03*
X283500D02*
D03*
X278500D02*
D03*
Y212250D02*
D03*
X283500D02*
D03*
X288500D02*
D03*
X293500D02*
D03*
X298500D02*
D03*
X303500D02*
D03*
D48*
X267250Y248500D02*
D03*
Y243500D02*
D03*
Y238500D02*
D03*
Y233500D02*
D03*
Y228500D02*
D03*
Y223500D02*
D03*
X314750D02*
D03*
Y228500D02*
D03*
Y233500D02*
D03*
Y238500D02*
D03*
Y243500D02*
D03*
Y248500D02*
D03*
M02*
