G04*
G04 #@! TF.GenerationSoftware,Altium Limited,Altium Designer,20.0.13 (296)*
G04*
G04 Layer_Physical_Order=3*
G04 Layer_Color=16440176*
%FSLAX44Y44*%
%MOMM*%
G71*
G01*
G75*
%ADD30C,0.8000*%
%ADD34C,0.6000*%
%ADD35C,0.5000*%
D30*
X259000Y193000D02*
X264000Y198000D01*
X196000Y193000D02*
X259000D01*
X187000Y175000D02*
Y184000D01*
X196000Y193000D01*
X130000Y223000D02*
X258000D01*
X106000Y199000D02*
X130000Y223000D01*
X106000Y148000D02*
Y199000D01*
X126000Y197000D02*
X133000Y204000D01*
X255000D01*
X187000Y162000D02*
Y175000D01*
Y149000D02*
Y162000D01*
X194000Y287000D02*
Y301000D01*
Y314000D01*
X260272Y265000D02*
X260636Y264636D01*
X235000Y265000D02*
X260272D01*
X194000Y287000D02*
X213000D01*
X235000Y265000D01*
X234000Y253000D02*
X258000D01*
X175000Y266000D02*
X221000D01*
X234000Y253000D01*
X177000Y240000D02*
X258000D01*
X109000Y288000D02*
X129000D01*
X177000Y240000D01*
X266000Y272000D02*
Y296000D01*
X236000Y326000D02*
X266000Y296000D01*
X109000Y326000D02*
X236000D01*
D34*
X126000Y197000D02*
D03*
X264000Y198000D02*
D03*
X106000Y148000D02*
D03*
X276000Y200875D02*
D03*
X187000Y149000D02*
D03*
Y162000D02*
D03*
Y175000D02*
D03*
X175000Y266000D02*
D03*
X258000Y240000D02*
D03*
X109000Y288000D02*
D03*
X266000Y272000D02*
D03*
X109000Y326000D02*
D03*
X258000Y223000D02*
D03*
Y253000D02*
D03*
X261000Y265000D02*
D03*
X194000Y287000D02*
D03*
Y314000D02*
D03*
Y301000D02*
D03*
D35*
X275729Y200875D02*
X276000D01*
X269604Y207000D02*
X275729Y200875D01*
X261000Y207000D02*
X269604D01*
X258000Y204000D02*
X261000Y207000D01*
X255000Y204000D02*
X258000D01*
M02*
